%
M48
M72
T01C0.0079
T02C0.0118
T03C0.0900
%
T01
X13740Y6590
X14445Y6185
X14240Y5990
X13840Y5990
X14440Y5590
X14890Y5140
X15490Y5140
X15490Y5590
X15490Y4640
X15490Y4140
X14240Y4140
X14240Y3540
X14240Y3040
X14240Y2590
X14640Y2390
X16440Y2640
X14890Y6890
X15290Y7440
T02
X890Y890
X1890Y890
X2740Y990
X3640Y990
X4640Y990
X5640Y990
X6640Y990
X7640Y990
X8640Y990
X9640Y990
X10640Y990
X11640Y990
X12540Y990
X13140Y890
X12540Y1890
X13440Y2090
X15090Y2390
X16140Y1890
X16890Y890
X16990Y2990
X16640Y3140
X15540Y3640
X13640Y3540
X13640Y4140
X12540Y4140
X12540Y3140
X13640Y5140
X12540Y5890
X12540Y6890
X13390Y6890
X12540Y7890
X12540Y8790
X13140Y8890
X11640Y8790
X10640Y8790
X9640Y8790
X8640Y8790
X7640Y8790
X6640Y8790
X5640Y8790
X4640Y8790
X3640Y8790
X2740Y8790
X1890Y8890
X890Y8890
X890Y7890
X890Y6890
X890Y5890
X2740Y5890
X2740Y4890
X890Y4140
X2740Y3890
X3640Y3840
X4140Y3840
X4690Y3640
X4690Y3140
X4690Y2640
X4690Y2140
X4140Y1990
X3640Y1990
X3090Y1840
X2740Y1640
X3090Y3190
X2740Y6890
X2740Y7890
X14840Y8390
X15090Y8740
X16390Y8390
X16990Y7490
X15640Y6890
T03
X17890Y8390
X17890Y1390
X1640Y4890
M30
