G75*
%MOIN*%
%OFA0B0*%
%FSLAX24Y24*%
%IPPOS*%
%LPD*%
%AMOC8*
5,1,8,0,0,1.08239X$1,22.5*
%
%ADD10R,0.1600X0.0800*%
%ADD11R,0.0709X0.0276*%
%ADD12R,0.0866X0.0630*%
%ADD13R,0.0217X0.0217*%
%ADD14C,0.0080*%
%ADD15C,0.0217*%
%ADD16C,0.0100*%
%ADD17C,0.0177*%
%ADD18C,0.0060*%
%ADD19C,0.0120*%
D10*
X001540Y001530D03*
X001540Y003530D03*
D11*
X016291Y003660D03*
X016291Y004152D03*
X016291Y004644D03*
X016291Y005136D03*
X016291Y005628D03*
X016291Y006120D03*
D12*
X017590Y007046D03*
X017590Y002734D03*
D13*
X016140Y001890D03*
X013440Y002090D03*
X013640Y003540D03*
X013640Y004140D03*
X013640Y005140D03*
D14*
X000760Y001010D02*
X000760Y000760D01*
X012640Y000760D01*
X012640Y009020D01*
X000760Y009020D01*
X000760Y004050D01*
X001500Y004050D01*
X001500Y003570D01*
X001580Y003570D01*
X001580Y004048D01*
X001551Y004045D01*
X001551Y004045D01*
X001215Y004154D01*
X001215Y004154D01*
X000952Y004390D01*
X000952Y004390D01*
X000952Y004390D01*
X000809Y004713D01*
X000809Y005067D01*
X000952Y005390D01*
X000952Y005390D01*
X001215Y005626D01*
X001215Y005626D01*
X001551Y005735D01*
X001551Y005735D01*
X001903Y005698D01*
X001903Y005698D01*
X002209Y005522D01*
X002209Y005522D01*
X002209Y005522D01*
X002417Y005236D01*
X002417Y005236D01*
X002490Y004890D01*
X002417Y004544D01*
X002417Y004544D01*
X002209Y004258D01*
X002209Y004258D01*
X002209Y004258D01*
X001903Y004082D01*
X001903Y004082D01*
X001602Y004050D01*
X002356Y004050D01*
X002386Y004042D01*
X002414Y004026D01*
X002436Y004004D01*
X002452Y003976D01*
X002460Y003946D01*
X002460Y003570D01*
X001580Y003570D01*
X001580Y003490D01*
X002460Y003490D01*
X002460Y003114D01*
X002452Y003084D01*
X002436Y003056D01*
X002414Y003034D01*
X002386Y003018D01*
X002356Y003010D01*
X001580Y003010D01*
X001580Y003490D01*
X001500Y003490D01*
X001500Y003010D01*
X000760Y003010D01*
X000760Y002050D01*
X001500Y002050D01*
X001500Y001570D01*
X001580Y001570D01*
X001580Y002050D01*
X002356Y002050D01*
X002386Y002042D01*
X002414Y002026D01*
X002436Y002004D01*
X002452Y001976D01*
X002460Y001946D01*
X002460Y001570D01*
X001580Y001570D01*
X001580Y001490D01*
X002460Y001490D01*
X002460Y001114D01*
X002452Y001084D01*
X002436Y001056D01*
X002414Y001034D01*
X002386Y001018D01*
X002356Y001010D01*
X001580Y001010D01*
X001580Y001490D01*
X001500Y001490D01*
X001500Y001010D01*
X000760Y001010D01*
X000760Y000954D02*
X012640Y000954D01*
X012640Y000876D02*
X000760Y000876D01*
X000760Y000797D02*
X012640Y000797D01*
X012640Y001033D02*
X002411Y001033D01*
X002459Y001111D02*
X012640Y001111D01*
X012640Y001190D02*
X002460Y001190D01*
X002460Y001268D02*
X012640Y001268D01*
X012640Y001347D02*
X002460Y001347D01*
X002460Y001425D02*
X012640Y001425D01*
X012640Y001504D02*
X001580Y001504D01*
X001580Y001582D02*
X001500Y001582D01*
X001500Y001661D02*
X001580Y001661D01*
X001580Y001739D02*
X001500Y001739D01*
X001500Y001818D02*
X001580Y001818D01*
X001580Y001896D02*
X001500Y001896D01*
X001500Y001975D02*
X001580Y001975D01*
X002452Y001975D02*
X012640Y001975D01*
X012640Y002053D02*
X000760Y002053D01*
X000760Y002132D02*
X012640Y002132D01*
X012640Y002210D02*
X000760Y002210D01*
X000760Y002289D02*
X012640Y002289D01*
X012640Y002367D02*
X000760Y002367D01*
X000760Y002446D02*
X012640Y002446D01*
X012640Y002524D02*
X000760Y002524D01*
X000760Y002603D02*
X012640Y002603D01*
X012640Y002681D02*
X000760Y002681D01*
X000760Y002760D02*
X012640Y002760D01*
X012640Y002838D02*
X000760Y002838D01*
X000760Y002917D02*
X012640Y002917D01*
X012640Y002995D02*
X000760Y002995D01*
X001500Y003074D02*
X001580Y003074D01*
X001580Y003152D02*
X001500Y003152D01*
X001500Y003231D02*
X001580Y003231D01*
X001580Y003309D02*
X001500Y003309D01*
X001500Y003388D02*
X001580Y003388D01*
X001580Y003466D02*
X001500Y003466D01*
X001580Y003545D02*
X012640Y003545D01*
X012640Y003623D02*
X002460Y003623D01*
X002460Y003702D02*
X012640Y003702D01*
X012640Y003780D02*
X002460Y003780D01*
X002460Y003859D02*
X012640Y003859D01*
X012640Y003937D02*
X002460Y003937D01*
X002424Y004016D02*
X012640Y004016D01*
X012640Y004094D02*
X001924Y004094D01*
X002060Y004173D02*
X012640Y004173D01*
X012640Y004251D02*
X002196Y004251D01*
X002260Y004330D02*
X012640Y004330D01*
X012640Y004408D02*
X002318Y004408D01*
X002375Y004487D02*
X012640Y004487D01*
X012640Y004565D02*
X002421Y004565D01*
X002438Y004644D02*
X012640Y004644D01*
X012640Y004722D02*
X002454Y004722D01*
X002471Y004801D02*
X012640Y004801D01*
X012640Y004879D02*
X002488Y004879D01*
X002476Y004958D02*
X012640Y004958D01*
X012640Y005036D02*
X002459Y005036D01*
X002442Y005115D02*
X012640Y005115D01*
X012640Y005193D02*
X002426Y005193D01*
X002391Y005272D02*
X012640Y005272D01*
X012640Y005350D02*
X002333Y005350D01*
X002276Y005429D02*
X012640Y005429D01*
X012640Y005507D02*
X002219Y005507D01*
X002098Y005586D02*
X012640Y005586D01*
X012640Y005664D02*
X001962Y005664D01*
X001332Y005664D02*
X000760Y005664D01*
X000760Y005586D02*
X001170Y005586D01*
X001083Y005507D02*
X000760Y005507D01*
X000760Y005429D02*
X000996Y005429D01*
X000935Y005350D02*
X000760Y005350D01*
X000760Y005272D02*
X000900Y005272D01*
X000865Y005193D02*
X000760Y005193D01*
X000760Y005115D02*
X000830Y005115D01*
X000809Y005036D02*
X000760Y005036D01*
X000760Y004958D02*
X000809Y004958D01*
X000809Y004879D02*
X000760Y004879D01*
X000760Y004801D02*
X000809Y004801D01*
X000809Y004722D02*
X000760Y004722D01*
X000760Y004644D02*
X000840Y004644D01*
X000875Y004565D02*
X000760Y004565D01*
X000760Y004487D02*
X000910Y004487D01*
X000944Y004408D02*
X000760Y004408D01*
X000760Y004330D02*
X001020Y004330D01*
X001107Y004251D02*
X000760Y004251D01*
X000760Y004173D02*
X001194Y004173D01*
X001399Y004094D02*
X000760Y004094D01*
X001500Y004016D02*
X001580Y004016D01*
X001580Y003937D02*
X001500Y003937D01*
X001500Y003859D02*
X001580Y003859D01*
X001580Y003780D02*
X001500Y003780D01*
X001500Y003702D02*
X001580Y003702D01*
X001580Y003623D02*
X001500Y003623D01*
X002460Y003466D02*
X012640Y003466D01*
X012640Y003388D02*
X002460Y003388D01*
X002460Y003309D02*
X012640Y003309D01*
X012640Y003231D02*
X002460Y003231D01*
X002460Y003152D02*
X012640Y003152D01*
X012640Y003074D02*
X002446Y003074D01*
X002460Y001896D02*
X012640Y001896D01*
X012640Y001818D02*
X002460Y001818D01*
X002460Y001739D02*
X012640Y001739D01*
X012640Y001661D02*
X002460Y001661D01*
X002460Y001582D02*
X012640Y001582D01*
X012890Y001582D02*
X017065Y001582D01*
X017059Y001567D02*
X017059Y001213D01*
X017202Y000890D01*
X017347Y000760D01*
X012890Y000760D01*
X012890Y009020D01*
X014780Y009020D01*
X014670Y008910D01*
X014670Y008543D01*
X014612Y008485D01*
X014612Y008295D01*
X014668Y008239D01*
X014668Y007408D01*
X014320Y007060D01*
X013543Y007060D01*
X013485Y007118D01*
X013295Y007118D01*
X013162Y006985D01*
X013162Y006795D01*
X013295Y006662D01*
X013485Y006662D01*
X013543Y006720D01*
X013575Y006720D01*
X013531Y006676D01*
X013531Y006504D01*
X013654Y006381D01*
X013736Y006381D01*
X013890Y006228D01*
X013890Y006199D01*
X013754Y006199D01*
X013631Y006076D01*
X013631Y005904D01*
X013690Y005845D01*
X013690Y005368D01*
X013640Y005368D01*
X013516Y005368D01*
X013485Y005360D01*
X013458Y005344D01*
X013436Y005322D01*
X013420Y005295D01*
X013412Y005264D01*
X013412Y005140D01*
X013412Y005016D01*
X013420Y004985D01*
X013436Y004958D01*
X013458Y004936D01*
X013485Y004920D01*
X013516Y004912D01*
X013640Y004912D01*
X013690Y004912D01*
X013690Y004368D01*
X013640Y004368D01*
X013516Y004368D01*
X013485Y004360D01*
X013458Y004344D01*
X013436Y004322D01*
X013420Y004295D01*
X013412Y004264D01*
X013412Y004140D01*
X013412Y004016D01*
X013420Y003985D01*
X013436Y003958D01*
X013458Y003936D01*
X013485Y003920D01*
X013516Y003912D01*
X013640Y003912D01*
X013690Y003912D01*
X013690Y003768D01*
X013640Y003768D01*
X013516Y003768D01*
X013485Y003760D01*
X013458Y003744D01*
X013436Y003722D01*
X013420Y003695D01*
X013412Y003664D01*
X013412Y003540D01*
X013412Y003416D01*
X013420Y003385D01*
X013436Y003358D01*
X013458Y003336D01*
X013485Y003320D01*
X013516Y003312D01*
X013640Y003312D01*
X013756Y003312D01*
X014031Y003036D01*
X014031Y002954D01*
X014154Y002831D01*
X014269Y002831D01*
X014236Y002799D01*
X014154Y002799D01*
X014031Y002676D01*
X014031Y002504D01*
X014154Y002381D01*
X014326Y002381D01*
X014449Y002504D01*
X014449Y002586D01*
X014490Y002628D01*
X014490Y002535D01*
X014431Y002476D01*
X014431Y002304D01*
X014554Y002181D01*
X014726Y002181D01*
X014849Y002304D01*
X014849Y002476D01*
X014790Y002535D01*
X014790Y004945D01*
X014804Y004931D01*
X014920Y004931D01*
X014920Y002543D01*
X014862Y002485D01*
X014862Y002295D01*
X014995Y002162D01*
X015185Y002162D01*
X015318Y002295D01*
X015318Y002485D01*
X015260Y002543D01*
X015260Y003058D01*
X015740Y002578D01*
X015828Y002490D01*
X016295Y002490D01*
X016354Y002431D01*
X016526Y002431D01*
X016649Y002554D01*
X016649Y002726D01*
X016526Y002849D01*
X016354Y002849D01*
X016295Y002790D01*
X015952Y002790D01*
X015440Y003302D01*
X015440Y003417D01*
X015445Y003412D01*
X015635Y003412D01*
X015683Y003460D01*
X015829Y003460D01*
X015887Y003402D01*
X016695Y003402D01*
X016765Y003472D01*
X016765Y003847D01*
X016707Y003906D01*
X016765Y003964D01*
X016765Y004339D01*
X016707Y004398D01*
X016765Y004456D01*
X016765Y004831D01*
X016707Y004890D01*
X016765Y004949D01*
X016765Y005324D01*
X016707Y005382D01*
X016765Y005441D01*
X016765Y005816D01*
X016703Y005878D01*
X016719Y005886D01*
X016741Y005909D01*
X016757Y005936D01*
X016765Y005967D01*
X016765Y006091D01*
X016320Y006091D01*
X016320Y006149D01*
X016765Y006149D01*
X016765Y006274D01*
X016757Y006304D01*
X016741Y006332D01*
X016719Y006354D01*
X016691Y006370D01*
X016661Y006378D01*
X016320Y006378D01*
X016320Y006149D01*
X016262Y006149D01*
X016262Y006091D01*
X015816Y006091D01*
X015816Y005967D01*
X015825Y005936D01*
X015840Y005909D01*
X015863Y005886D01*
X015878Y005878D01*
X015816Y005816D01*
X015816Y005740D01*
X015635Y005740D01*
X015576Y005799D01*
X015440Y005799D01*
X015440Y007295D01*
X015499Y007354D01*
X015499Y007526D01*
X015376Y007649D01*
X015260Y007649D01*
X015260Y008587D01*
X015318Y008645D01*
X015318Y008820D01*
X016520Y008820D01*
X016820Y008520D01*
X016820Y007643D01*
X016762Y007585D01*
X016762Y007395D01*
X016820Y007337D01*
X016820Y003143D01*
X016762Y003085D01*
X016762Y002895D01*
X016895Y002762D01*
X017037Y002762D01*
X017037Y002370D01*
X017107Y002300D01*
X018073Y002300D01*
X018143Y002370D01*
X018143Y003099D01*
X018073Y003169D01*
X017160Y003169D01*
X017160Y006611D01*
X018073Y006611D01*
X018143Y006681D01*
X018143Y007410D01*
X018073Y007480D01*
X017218Y007480D01*
X017218Y007585D01*
X017160Y007643D01*
X017160Y007985D01*
X017202Y007890D01*
X017465Y007654D01*
X017801Y007545D01*
X018153Y007582D01*
X018459Y007758D01*
X018459Y007758D01*
X018459Y007758D01*
X018520Y007843D01*
X018520Y001937D01*
X018459Y002022D01*
X018459Y002022D01*
X018459Y002022D01*
X018153Y002198D01*
X018153Y002198D01*
X017801Y002235D01*
X017465Y002126D01*
X017202Y001890D01*
X017202Y001890D01*
X017059Y001567D01*
X017059Y001504D02*
X012890Y001504D01*
X012890Y001425D02*
X017059Y001425D01*
X017059Y001347D02*
X012890Y001347D01*
X012890Y001268D02*
X017059Y001268D01*
X017069Y001190D02*
X012890Y001190D01*
X012890Y001111D02*
X017104Y001111D01*
X017139Y001033D02*
X012890Y001033D01*
X012890Y000954D02*
X017174Y000954D01*
X017202Y000890D02*
X017202Y000890D01*
X017202Y000890D01*
X017219Y000876D02*
X012890Y000876D01*
X012890Y000797D02*
X017306Y000797D01*
X017100Y001661D02*
X012890Y001661D01*
X012890Y001739D02*
X015919Y001739D01*
X015920Y001735D02*
X015936Y001708D01*
X015958Y001686D01*
X015985Y001670D01*
X016016Y001662D01*
X016140Y001662D01*
X016264Y001662D01*
X016295Y001670D01*
X016322Y001686D01*
X016344Y001708D01*
X016360Y001735D01*
X016368Y001766D01*
X016368Y001890D01*
X016368Y002014D01*
X016360Y002045D01*
X016344Y002072D01*
X016322Y002094D01*
X016295Y002110D01*
X016264Y002118D01*
X016140Y002118D01*
X016016Y002118D01*
X015985Y002110D01*
X015958Y002094D01*
X015936Y002072D01*
X015920Y002045D01*
X015912Y002014D01*
X015912Y001890D01*
X015912Y001766D01*
X015920Y001735D01*
X015912Y001818D02*
X012890Y001818D01*
X012890Y001896D02*
X013248Y001896D01*
X013258Y001886D02*
X013285Y001870D01*
X013316Y001862D01*
X013440Y001862D01*
X013564Y001862D01*
X013595Y001870D01*
X013622Y001886D01*
X013644Y001908D01*
X013660Y001935D01*
X013668Y001966D01*
X013668Y002090D01*
X013668Y002214D01*
X013660Y002245D01*
X013644Y002272D01*
X013622Y002294D01*
X013595Y002310D01*
X013564Y002318D01*
X013440Y002318D01*
X013316Y002318D01*
X013285Y002310D01*
X013258Y002294D01*
X013236Y002272D01*
X013220Y002245D01*
X013212Y002214D01*
X013212Y002090D01*
X013212Y001966D01*
X013220Y001935D01*
X013236Y001908D01*
X013258Y001886D01*
X013212Y001975D02*
X012890Y001975D01*
X012890Y002053D02*
X013212Y002053D01*
X013212Y002090D02*
X013440Y002090D01*
X013440Y002090D01*
X013440Y002318D01*
X013440Y002090D01*
X013668Y002090D01*
X013440Y002090D01*
X013440Y002090D01*
X013440Y002090D01*
X013212Y002090D01*
X013212Y002132D02*
X012890Y002132D01*
X012890Y002210D02*
X013212Y002210D01*
X013252Y002289D02*
X012890Y002289D01*
X012890Y002367D02*
X014431Y002367D01*
X014431Y002446D02*
X014390Y002446D01*
X014449Y002524D02*
X014479Y002524D01*
X014490Y002603D02*
X014465Y002603D01*
X014790Y002603D02*
X014920Y002603D01*
X014920Y002681D02*
X014790Y002681D01*
X014790Y002760D02*
X014920Y002760D01*
X014920Y002838D02*
X014790Y002838D01*
X014790Y002917D02*
X014920Y002917D01*
X014920Y002995D02*
X014790Y002995D01*
X014790Y003074D02*
X014920Y003074D01*
X014920Y003152D02*
X014790Y003152D01*
X014790Y003231D02*
X014920Y003231D01*
X014920Y003309D02*
X014790Y003309D01*
X014790Y003388D02*
X014920Y003388D01*
X014920Y003466D02*
X014790Y003466D01*
X014790Y003545D02*
X014920Y003545D01*
X014920Y003623D02*
X014790Y003623D01*
X014790Y003702D02*
X014920Y003702D01*
X014920Y003780D02*
X014790Y003780D01*
X014790Y003859D02*
X014920Y003859D01*
X014920Y003937D02*
X014790Y003937D01*
X014790Y004016D02*
X014920Y004016D01*
X014920Y004094D02*
X014790Y004094D01*
X014790Y004173D02*
X014920Y004173D01*
X014920Y004251D02*
X014790Y004251D01*
X014790Y004330D02*
X014920Y004330D01*
X014920Y004408D02*
X014790Y004408D01*
X014790Y004487D02*
X014920Y004487D01*
X014920Y004565D02*
X014790Y004565D01*
X014790Y004644D02*
X014920Y004644D01*
X014920Y004722D02*
X014790Y004722D01*
X014790Y004801D02*
X014920Y004801D01*
X014920Y004879D02*
X014790Y004879D01*
X013690Y004879D02*
X012890Y004879D01*
X012890Y004801D02*
X013690Y004801D01*
X013690Y004722D02*
X012890Y004722D01*
X012890Y004644D02*
X013690Y004644D01*
X013690Y004565D02*
X012890Y004565D01*
X012890Y004487D02*
X013690Y004487D01*
X013690Y004408D02*
X012890Y004408D01*
X012890Y004330D02*
X013443Y004330D01*
X013412Y004251D02*
X012890Y004251D01*
X012890Y004173D02*
X013412Y004173D01*
X013412Y004140D02*
X013640Y004140D01*
X013640Y004140D01*
X013640Y004368D01*
X013640Y004140D01*
X013640Y003912D01*
X013640Y004140D01*
X013640Y004140D01*
X013640Y004140D01*
X013412Y004140D01*
X013412Y004094D02*
X012890Y004094D01*
X012890Y004016D02*
X013412Y004016D01*
X013457Y003937D02*
X012890Y003937D01*
X012890Y003859D02*
X013690Y003859D01*
X013690Y003780D02*
X012890Y003780D01*
X012890Y003702D02*
X013424Y003702D01*
X013412Y003623D02*
X012890Y003623D01*
X012890Y003545D02*
X013412Y003545D01*
X013412Y003540D02*
X013640Y003540D01*
X013640Y003540D01*
X013640Y003768D01*
X013640Y003540D01*
X013640Y003312D01*
X013640Y003540D01*
X013640Y003540D01*
X013640Y003540D01*
X013412Y003540D01*
X013412Y003466D02*
X012890Y003466D01*
X012890Y003388D02*
X013419Y003388D01*
X013640Y003388D02*
X013640Y003388D01*
X013640Y003466D02*
X013640Y003466D01*
X013640Y003545D02*
X013640Y003545D01*
X013640Y003623D02*
X013640Y003623D01*
X013640Y003702D02*
X013640Y003702D01*
X013640Y003937D02*
X013640Y003937D01*
X013640Y004016D02*
X013640Y004016D01*
X013640Y004094D02*
X013640Y004094D01*
X013640Y004173D02*
X013640Y004173D01*
X013640Y004251D02*
X013640Y004251D01*
X013640Y004330D02*
X013640Y004330D01*
X013640Y004912D02*
X013640Y005140D01*
X013640Y005140D01*
X013640Y005368D01*
X013640Y005140D01*
X013640Y005140D01*
X013640Y005140D01*
X013412Y005140D01*
X013640Y005140D01*
X013640Y004912D01*
X013640Y004958D02*
X013640Y004958D01*
X013640Y005036D02*
X013640Y005036D01*
X013640Y005115D02*
X013640Y005115D01*
X013640Y005193D02*
X013640Y005193D01*
X013640Y005272D02*
X013640Y005272D01*
X013640Y005350D02*
X013640Y005350D01*
X013690Y005429D02*
X012890Y005429D01*
X012890Y005507D02*
X013690Y005507D01*
X013690Y005586D02*
X012890Y005586D01*
X012890Y005664D02*
X013690Y005664D01*
X013690Y005743D02*
X012890Y005743D01*
X012890Y005821D02*
X013690Y005821D01*
X013636Y005900D02*
X012890Y005900D01*
X012890Y005978D02*
X013631Y005978D01*
X013631Y006057D02*
X012890Y006057D01*
X012890Y006135D02*
X013690Y006135D01*
X013890Y006214D02*
X012890Y006214D01*
X012890Y006292D02*
X013826Y006292D01*
X013747Y006371D02*
X012890Y006371D01*
X012890Y006449D02*
X013586Y006449D01*
X013531Y006528D02*
X012890Y006528D01*
X012890Y006606D02*
X013531Y006606D01*
X013540Y006685D02*
X013507Y006685D01*
X013273Y006685D02*
X012890Y006685D01*
X012890Y006763D02*
X013194Y006763D01*
X013162Y006842D02*
X012890Y006842D01*
X012890Y006920D02*
X013162Y006920D01*
X013176Y006999D02*
X012890Y006999D01*
X012890Y007077D02*
X013254Y007077D01*
X013526Y007077D02*
X014337Y007077D01*
X014415Y007156D02*
X012890Y007156D01*
X012890Y007234D02*
X014494Y007234D01*
X014572Y007313D02*
X012890Y007313D01*
X012890Y007391D02*
X014651Y007391D01*
X014668Y007470D02*
X012890Y007470D01*
X012890Y007548D02*
X014668Y007548D01*
X014668Y007627D02*
X012890Y007627D01*
X012890Y007705D02*
X014668Y007705D01*
X014668Y007784D02*
X012890Y007784D01*
X012890Y007862D02*
X014668Y007862D01*
X014668Y007941D02*
X012890Y007941D01*
X012890Y008019D02*
X014668Y008019D01*
X014668Y008098D02*
X012890Y008098D01*
X012890Y008176D02*
X014668Y008176D01*
X014653Y008255D02*
X012890Y008255D01*
X012890Y008333D02*
X014612Y008333D01*
X014612Y008412D02*
X012890Y008412D01*
X012890Y008490D02*
X014617Y008490D01*
X014670Y008569D02*
X012890Y008569D01*
X012890Y008647D02*
X014670Y008647D01*
X014670Y008726D02*
X012890Y008726D01*
X012890Y008804D02*
X014670Y008804D01*
X014670Y008883D02*
X012890Y008883D01*
X012890Y008961D02*
X014721Y008961D01*
X015318Y008804D02*
X016536Y008804D01*
X016614Y008726D02*
X015318Y008726D01*
X015318Y008647D02*
X016693Y008647D01*
X016771Y008569D02*
X015260Y008569D01*
X015260Y008490D02*
X016820Y008490D01*
X016820Y008412D02*
X015260Y008412D01*
X015260Y008333D02*
X016820Y008333D01*
X016820Y008255D02*
X015260Y008255D01*
X015260Y008176D02*
X016820Y008176D01*
X016820Y008098D02*
X015260Y008098D01*
X015260Y008019D02*
X016820Y008019D01*
X016820Y007941D02*
X015260Y007941D01*
X015260Y007862D02*
X016820Y007862D01*
X016820Y007784D02*
X015260Y007784D01*
X015260Y007705D02*
X016820Y007705D01*
X016804Y007627D02*
X015398Y007627D01*
X015477Y007548D02*
X016762Y007548D01*
X016762Y007470D02*
X015499Y007470D01*
X015499Y007391D02*
X016766Y007391D01*
X016820Y007313D02*
X015458Y007313D01*
X015440Y007234D02*
X016820Y007234D01*
X016820Y007156D02*
X015440Y007156D01*
X015440Y007077D02*
X016820Y007077D01*
X016820Y006999D02*
X015440Y006999D01*
X015440Y006920D02*
X016820Y006920D01*
X016820Y006842D02*
X015440Y006842D01*
X015440Y006763D02*
X016820Y006763D01*
X016820Y006685D02*
X015440Y006685D01*
X015440Y006606D02*
X016820Y006606D01*
X016820Y006528D02*
X015440Y006528D01*
X015440Y006449D02*
X016820Y006449D01*
X016820Y006371D02*
X016689Y006371D01*
X016760Y006292D02*
X016820Y006292D01*
X016820Y006214D02*
X016765Y006214D01*
X016820Y006135D02*
X016320Y006135D01*
X016262Y006135D02*
X015440Y006135D01*
X015440Y006057D02*
X015816Y006057D01*
X015816Y005978D02*
X015440Y005978D01*
X015440Y005900D02*
X015850Y005900D01*
X015822Y005821D02*
X015440Y005821D01*
X015632Y005743D02*
X015816Y005743D01*
X015816Y006149D02*
X016262Y006149D01*
X016262Y006378D01*
X015921Y006378D01*
X015890Y006370D01*
X015863Y006354D01*
X015840Y006332D01*
X015825Y006304D01*
X015816Y006274D01*
X015816Y006149D01*
X015816Y006214D02*
X015440Y006214D01*
X015440Y006292D02*
X015821Y006292D01*
X015892Y006371D02*
X015440Y006371D01*
X016262Y006371D02*
X016320Y006371D01*
X016320Y006292D02*
X016262Y006292D01*
X016262Y006214D02*
X016320Y006214D01*
X016765Y006057D02*
X016820Y006057D01*
X016820Y005978D02*
X016765Y005978D01*
X016732Y005900D02*
X016820Y005900D01*
X016820Y005821D02*
X016760Y005821D01*
X016765Y005743D02*
X016820Y005743D01*
X016820Y005664D02*
X016765Y005664D01*
X016765Y005586D02*
X016820Y005586D01*
X016820Y005507D02*
X016765Y005507D01*
X016753Y005429D02*
X016820Y005429D01*
X016820Y005350D02*
X016739Y005350D01*
X016765Y005272D02*
X016820Y005272D01*
X016820Y005193D02*
X016765Y005193D01*
X016765Y005115D02*
X016820Y005115D01*
X016820Y005036D02*
X016765Y005036D01*
X016765Y004958D02*
X016820Y004958D01*
X016820Y004879D02*
X016718Y004879D01*
X016765Y004801D02*
X016820Y004801D01*
X016820Y004722D02*
X016765Y004722D01*
X016765Y004644D02*
X016820Y004644D01*
X016820Y004565D02*
X016765Y004565D01*
X016765Y004487D02*
X016820Y004487D01*
X016820Y004408D02*
X016717Y004408D01*
X016765Y004330D02*
X016820Y004330D01*
X016820Y004251D02*
X016765Y004251D01*
X016765Y004173D02*
X016820Y004173D01*
X016820Y004094D02*
X016765Y004094D01*
X016765Y004016D02*
X016820Y004016D01*
X016820Y003937D02*
X016738Y003937D01*
X016754Y003859D02*
X016820Y003859D01*
X016820Y003780D02*
X016765Y003780D01*
X016765Y003702D02*
X016820Y003702D01*
X016820Y003623D02*
X016765Y003623D01*
X016765Y003545D02*
X016820Y003545D01*
X016820Y003466D02*
X016759Y003466D01*
X016820Y003388D02*
X015440Y003388D01*
X015440Y003309D02*
X016820Y003309D01*
X016820Y003231D02*
X015512Y003231D01*
X015590Y003152D02*
X016820Y003152D01*
X016762Y003074D02*
X015669Y003074D01*
X015747Y002995D02*
X016762Y002995D01*
X016762Y002917D02*
X015826Y002917D01*
X015904Y002838D02*
X016343Y002838D01*
X016537Y002838D02*
X016819Y002838D01*
X016615Y002760D02*
X017037Y002760D01*
X017037Y002681D02*
X016649Y002681D01*
X016649Y002603D02*
X017037Y002603D01*
X017037Y002524D02*
X016619Y002524D01*
X016540Y002446D02*
X017037Y002446D01*
X017040Y002367D02*
X015318Y002367D01*
X015318Y002446D02*
X016340Y002446D01*
X015794Y002524D02*
X015279Y002524D01*
X015260Y002603D02*
X015715Y002603D01*
X015637Y002681D02*
X015260Y002681D01*
X015260Y002760D02*
X015558Y002760D01*
X015480Y002838D02*
X015260Y002838D01*
X015260Y002917D02*
X015401Y002917D01*
X015323Y002995D02*
X015260Y002995D01*
X014901Y002524D02*
X014801Y002524D01*
X014849Y002446D02*
X014862Y002446D01*
X014862Y002367D02*
X014849Y002367D01*
X014833Y002289D02*
X014869Y002289D01*
X014947Y002210D02*
X014755Y002210D01*
X014525Y002210D02*
X013668Y002210D01*
X013668Y002132D02*
X017482Y002132D01*
X017465Y002126D02*
X017465Y002126D01*
X017384Y002053D02*
X016355Y002053D01*
X016368Y001975D02*
X017297Y001975D01*
X017209Y001896D02*
X016368Y001896D01*
X016368Y001890D02*
X016140Y001890D01*
X016140Y001890D01*
X016140Y002118D01*
X016140Y001890D01*
X016140Y001890D01*
X016140Y001662D01*
X016140Y001890D01*
X016140Y001890D01*
X016140Y001890D01*
X015912Y001890D01*
X016140Y001890D01*
X016368Y001890D01*
X016368Y001818D02*
X017170Y001818D01*
X017135Y001739D02*
X016361Y001739D01*
X016140Y001739D02*
X016140Y001739D01*
X016140Y001818D02*
X016140Y001818D01*
X016140Y001896D02*
X016140Y001896D01*
X016140Y001975D02*
X016140Y001975D01*
X016140Y002053D02*
X016140Y002053D01*
X015925Y002053D02*
X013668Y002053D01*
X013668Y001975D02*
X015912Y001975D01*
X015912Y001896D02*
X013632Y001896D01*
X013440Y001896D02*
X013440Y001896D01*
X013440Y001862D02*
X013440Y002090D01*
X013440Y002090D01*
X013440Y001862D01*
X013440Y001975D02*
X013440Y001975D01*
X013440Y002053D02*
X013440Y002053D01*
X013440Y002132D02*
X013440Y002132D01*
X013440Y002210D02*
X013440Y002210D01*
X013440Y002289D02*
X013440Y002289D01*
X013628Y002289D02*
X014447Y002289D01*
X014090Y002446D02*
X012890Y002446D01*
X012890Y002524D02*
X014031Y002524D01*
X014031Y002603D02*
X012890Y002603D01*
X012890Y002681D02*
X014036Y002681D01*
X014115Y002760D02*
X012890Y002760D01*
X012890Y002838D02*
X014147Y002838D01*
X014069Y002917D02*
X012890Y002917D01*
X012890Y002995D02*
X014031Y002995D01*
X013994Y003074D02*
X012890Y003074D01*
X012890Y003152D02*
X013916Y003152D01*
X013837Y003231D02*
X012890Y003231D01*
X012890Y003309D02*
X013759Y003309D01*
X015311Y002289D02*
X018520Y002289D01*
X018520Y002367D02*
X018140Y002367D01*
X018143Y002446D02*
X018520Y002446D01*
X018520Y002524D02*
X018143Y002524D01*
X018143Y002603D02*
X018520Y002603D01*
X018520Y002681D02*
X018143Y002681D01*
X018143Y002760D02*
X018520Y002760D01*
X018520Y002838D02*
X018143Y002838D01*
X018143Y002917D02*
X018520Y002917D01*
X018520Y002995D02*
X018143Y002995D01*
X018143Y003074D02*
X018520Y003074D01*
X018520Y003152D02*
X018090Y003152D01*
X018520Y003231D02*
X017160Y003231D01*
X017160Y003309D02*
X018520Y003309D01*
X018520Y003388D02*
X017160Y003388D01*
X017160Y003466D02*
X018520Y003466D01*
X018520Y003545D02*
X017160Y003545D01*
X017160Y003623D02*
X018520Y003623D01*
X018520Y003702D02*
X017160Y003702D01*
X017160Y003780D02*
X018520Y003780D01*
X018520Y003859D02*
X017160Y003859D01*
X017160Y003937D02*
X018520Y003937D01*
X018520Y004016D02*
X017160Y004016D01*
X017160Y004094D02*
X018520Y004094D01*
X018520Y004173D02*
X017160Y004173D01*
X017160Y004251D02*
X018520Y004251D01*
X018520Y004330D02*
X017160Y004330D01*
X017160Y004408D02*
X018520Y004408D01*
X018520Y004487D02*
X017160Y004487D01*
X017160Y004565D02*
X018520Y004565D01*
X018520Y004644D02*
X017160Y004644D01*
X017160Y004722D02*
X018520Y004722D01*
X018520Y004801D02*
X017160Y004801D01*
X017160Y004879D02*
X018520Y004879D01*
X018520Y004958D02*
X017160Y004958D01*
X017160Y005036D02*
X018520Y005036D01*
X018520Y005115D02*
X017160Y005115D01*
X017160Y005193D02*
X018520Y005193D01*
X018520Y005272D02*
X017160Y005272D01*
X017160Y005350D02*
X018520Y005350D01*
X018520Y005429D02*
X017160Y005429D01*
X017160Y005507D02*
X018520Y005507D01*
X018520Y005586D02*
X017160Y005586D01*
X017160Y005664D02*
X018520Y005664D01*
X018520Y005743D02*
X017160Y005743D01*
X017160Y005821D02*
X018520Y005821D01*
X018520Y005900D02*
X017160Y005900D01*
X017160Y005978D02*
X018520Y005978D01*
X018520Y006057D02*
X017160Y006057D01*
X017160Y006135D02*
X018520Y006135D01*
X018520Y006214D02*
X017160Y006214D01*
X017160Y006292D02*
X018520Y006292D01*
X018520Y006371D02*
X017160Y006371D01*
X017160Y006449D02*
X018520Y006449D01*
X018520Y006528D02*
X017160Y006528D01*
X017160Y006606D02*
X018520Y006606D01*
X018520Y006685D02*
X018143Y006685D01*
X018143Y006763D02*
X018520Y006763D01*
X018520Y006842D02*
X018143Y006842D01*
X018143Y006920D02*
X018520Y006920D01*
X018520Y006999D02*
X018143Y006999D01*
X018143Y007077D02*
X018520Y007077D01*
X018520Y007156D02*
X018143Y007156D01*
X018143Y007234D02*
X018520Y007234D01*
X018520Y007313D02*
X018143Y007313D01*
X018143Y007391D02*
X018520Y007391D01*
X018520Y007470D02*
X018084Y007470D01*
X018153Y007582D02*
X018153Y007582D01*
X018230Y007627D02*
X018520Y007627D01*
X018520Y007705D02*
X018366Y007705D01*
X018477Y007784D02*
X018520Y007784D01*
X018520Y007548D02*
X017833Y007548D01*
X017801Y007545D02*
X017801Y007545D01*
X017791Y007548D02*
X017218Y007548D01*
X017176Y007627D02*
X017549Y007627D01*
X017465Y007654D02*
X017465Y007654D01*
X017408Y007705D02*
X017160Y007705D01*
X017160Y007784D02*
X017321Y007784D01*
X017234Y007862D02*
X017160Y007862D01*
X017202Y007890D02*
X017202Y007890D01*
X017180Y007941D02*
X017160Y007941D01*
X012640Y007941D02*
X000760Y007941D01*
X000760Y008019D02*
X012640Y008019D01*
X012640Y008098D02*
X000760Y008098D01*
X000760Y008176D02*
X012640Y008176D01*
X012640Y008255D02*
X000760Y008255D01*
X000760Y008333D02*
X012640Y008333D01*
X012640Y008412D02*
X000760Y008412D01*
X000760Y008490D02*
X012640Y008490D01*
X012640Y008569D02*
X000760Y008569D01*
X000760Y008647D02*
X012640Y008647D01*
X012640Y008726D02*
X000760Y008726D01*
X000760Y008804D02*
X012640Y008804D01*
X012640Y008883D02*
X000760Y008883D01*
X000760Y008961D02*
X012640Y008961D01*
X012640Y007862D02*
X000760Y007862D01*
X000760Y007784D02*
X012640Y007784D01*
X012640Y007705D02*
X000760Y007705D01*
X000760Y007627D02*
X012640Y007627D01*
X012640Y007548D02*
X000760Y007548D01*
X000760Y007470D02*
X012640Y007470D01*
X012640Y007391D02*
X000760Y007391D01*
X000760Y007313D02*
X012640Y007313D01*
X012640Y007234D02*
X000760Y007234D01*
X000760Y007156D02*
X012640Y007156D01*
X012640Y007077D02*
X000760Y007077D01*
X000760Y006999D02*
X012640Y006999D01*
X012640Y006920D02*
X000760Y006920D01*
X000760Y006842D02*
X012640Y006842D01*
X012640Y006763D02*
X000760Y006763D01*
X000760Y006685D02*
X012640Y006685D01*
X012640Y006606D02*
X000760Y006606D01*
X000760Y006528D02*
X012640Y006528D01*
X012640Y006449D02*
X000760Y006449D01*
X000760Y006371D02*
X012640Y006371D01*
X012640Y006292D02*
X000760Y006292D01*
X000760Y006214D02*
X012640Y006214D01*
X012640Y006135D02*
X000760Y006135D01*
X000760Y006057D02*
X012640Y006057D01*
X012640Y005978D02*
X000760Y005978D01*
X000760Y005900D02*
X012640Y005900D01*
X012640Y005821D02*
X000760Y005821D01*
X000760Y005743D02*
X012640Y005743D01*
X012890Y005350D02*
X013468Y005350D01*
X013414Y005272D02*
X012890Y005272D01*
X012890Y005193D02*
X013412Y005193D01*
X013412Y005115D02*
X012890Y005115D01*
X012890Y005036D02*
X013412Y005036D01*
X013436Y004958D02*
X012890Y004958D01*
X015233Y002210D02*
X017723Y002210D01*
X017801Y002235D02*
X017801Y002235D01*
X018042Y002210D02*
X018520Y002210D01*
X018520Y002132D02*
X018269Y002132D01*
X018404Y002053D02*
X018520Y002053D01*
X018520Y001975D02*
X018493Y001975D01*
X001580Y001425D02*
X001500Y001425D01*
X001500Y001347D02*
X001580Y001347D01*
X001580Y001268D02*
X001500Y001268D01*
X001500Y001190D02*
X001580Y001190D01*
X001580Y001111D02*
X001500Y001111D01*
X001500Y001033D02*
X001580Y001033D01*
D15*
X001890Y000890D03*
X002740Y000990D03*
X003640Y000990D03*
X004640Y000990D03*
X005640Y000990D03*
X006640Y000990D03*
X007640Y000990D03*
X008640Y000990D03*
X009640Y000990D03*
X010640Y000990D03*
X011640Y000990D03*
X012540Y000990D03*
X013140Y000890D03*
X012540Y001890D03*
X012540Y003140D03*
X012540Y004140D03*
X015540Y003640D03*
X016640Y003140D03*
X016990Y002990D03*
X015090Y002390D03*
X016890Y000890D03*
X012540Y005890D03*
X012540Y006890D03*
X013390Y006890D03*
X012540Y007890D03*
X012540Y008790D03*
X013140Y008890D03*
X011640Y008790D03*
X010640Y008790D03*
X009640Y008790D03*
X008640Y008790D03*
X007640Y008790D03*
X006640Y008790D03*
X005640Y008790D03*
X004640Y008790D03*
X003640Y008790D03*
X002740Y008790D03*
X001890Y008890D03*
X000890Y008890D03*
X000890Y007890D03*
X000890Y006890D03*
X000890Y005890D03*
X002740Y005890D03*
X002740Y004890D03*
X000890Y004140D03*
X002740Y003890D03*
X003640Y003840D03*
X004140Y003840D03*
X004690Y003640D03*
X004690Y003140D03*
X004690Y002640D03*
X004690Y002140D03*
X004140Y001990D03*
X003640Y001990D03*
X003090Y001840D03*
X002740Y001640D03*
X000890Y000890D03*
X003090Y003190D03*
X002740Y006890D03*
X002740Y007890D03*
X014840Y008390D03*
X015090Y008740D03*
X016390Y008390D03*
X016990Y007490D03*
X015640Y006890D03*
D16*
X014838Y007338D02*
X014838Y008388D01*
X014840Y008390D01*
X014840Y008840D01*
X014990Y008990D01*
X016590Y008990D01*
X016990Y008590D01*
X016990Y007490D01*
X016990Y002990D01*
X015090Y002390D02*
X015090Y008740D01*
X014838Y007338D02*
X014390Y006890D01*
X013390Y006890D01*
D17*
X013740Y006590D03*
X014445Y006185D03*
X014240Y005990D03*
X013840Y005990D03*
X014440Y005590D03*
X014890Y005140D03*
X015490Y005140D03*
X015490Y005590D03*
X015490Y004640D03*
X015490Y004140D03*
X014240Y004140D03*
X014240Y003540D03*
X014240Y003040D03*
X014240Y002590D03*
X014640Y002390D03*
X016440Y002640D03*
X014890Y006890D03*
X015290Y007440D03*
D18*
X015290Y003240D01*
X015890Y002640D01*
X016440Y002640D01*
X014640Y002390D02*
X014640Y005990D01*
X014445Y006185D01*
X014240Y005990D02*
X014240Y004140D01*
X014040Y003740D02*
X014240Y003540D01*
X014040Y003740D02*
X014040Y006290D01*
X013740Y006590D01*
X013840Y005990D02*
X013840Y003440D01*
X014240Y003040D01*
X014440Y002790D02*
X014240Y002590D01*
X014440Y002790D02*
X014440Y005590D01*
X014890Y005140D02*
X014890Y006890D01*
X015490Y005590D02*
X016253Y005590D01*
X016291Y005628D01*
X016287Y005140D02*
X015490Y005140D01*
X016287Y005140D02*
X016291Y005136D01*
X016291Y004644D02*
X016287Y004640D01*
X015490Y004640D01*
X015490Y004140D02*
X016279Y004140D01*
X016291Y004152D01*
D19*
X016291Y003660D02*
X016271Y003640D01*
X015540Y003640D01*
M02*
