G75*
%MOIN*%
%OFA0B0*%
%FSLAX24Y24*%
%IPPOS*%
%LPD*%
%AMOC8*
5,1,8,0,0,1.08239X$1,22.5*
%
%ADD10R,0.1181X0.0630*%
%ADD11R,0.1600X0.0800*%
%ADD12R,0.1600X0.0600*%
%ADD13C,0.0394*%
%ADD14R,0.0217X0.0098*%
%ADD15R,0.0197X0.0197*%
%ADD16R,0.0236X0.0197*%
%ADD17R,0.0197X0.0236*%
%ADD18R,0.0118X0.0315*%
%ADD19R,0.0315X0.0118*%
%ADD20R,0.0787X0.0787*%
%ADD21R,0.0669X0.0173*%
%ADD22R,0.0827X0.0581*%
%ADD23R,0.0748X0.0935*%
%ADD24R,0.0748X0.0463*%
%ADD25R,0.0236X0.0354*%
%ADD26R,0.0197X0.0394*%
%ADD27R,0.0256X0.0098*%
%ADD28R,0.0118X0.0177*%
%ADD29R,0.0236X0.0236*%
%ADD30R,0.0157X0.0157*%
%ADD31R,0.0217X0.0217*%
%ADD32C,0.0472*%
%ADD33C,0.0080*%
%ADD34C,0.0217*%
%ADD35C,0.0240*%
%ADD36C,0.0060*%
%ADD37C,0.0100*%
%ADD38C,0.0177*%
%ADD39C,0.0500*%
%ADD40C,0.0120*%
%ADD41C,0.0059*%
D10*
X003900Y002528D03*
X003900Y003315D03*
X011380Y003315D03*
X011380Y002528D03*
X011380Y004103D03*
X011380Y004890D03*
X011380Y005677D03*
X011380Y006465D03*
X011380Y007252D03*
D11*
X001540Y003530D03*
X001540Y001530D03*
D12*
X001540Y002530D03*
D13*
X001640Y008390D03*
X016640Y001390D03*
D14*
X015077Y001693D03*
X015077Y001890D03*
X015077Y002087D03*
X014503Y002087D03*
X014503Y001890D03*
X014503Y001693D03*
D15*
X014790Y001890D03*
D16*
X014140Y001693D03*
X014140Y002087D03*
X015640Y002087D03*
X015640Y001693D03*
D17*
X014987Y001240D03*
X014593Y001240D03*
X013837Y002590D03*
X013443Y002590D03*
X013443Y003040D03*
X013837Y003040D03*
X016693Y002640D03*
X017087Y002640D03*
X013837Y004640D03*
X013443Y004640D03*
X016693Y007140D03*
X017087Y007140D03*
X015837Y008290D03*
X015443Y008290D03*
X015443Y008740D03*
X015837Y008740D03*
D18*
X014534Y008388D03*
X014337Y008388D03*
X014140Y008388D03*
X013943Y008388D03*
X013746Y008388D03*
X013746Y006892D03*
X013943Y006892D03*
X014140Y006892D03*
X014337Y006892D03*
X014534Y006892D03*
D19*
X014888Y007246D03*
X014888Y007443D03*
X014888Y007640D03*
X014888Y007837D03*
X014888Y008034D03*
X013392Y008034D03*
X013392Y007837D03*
X013392Y007640D03*
X013392Y007443D03*
X013392Y007246D03*
D20*
X014140Y007640D03*
D21*
X016938Y005402D03*
X016938Y005146D03*
X016938Y004890D03*
X016938Y004634D03*
X016938Y004378D03*
D22*
X017134Y003906D03*
X017134Y005874D03*
D23*
X018040Y006051D03*
X018040Y003729D03*
D24*
X018040Y004560D03*
X018040Y005220D03*
D25*
X018185Y007140D03*
X017595Y007140D03*
X017595Y002640D03*
X018185Y002640D03*
D26*
X016140Y003286D03*
X015884Y003994D03*
X016396Y003994D03*
D27*
X014711Y005595D03*
X014711Y005792D03*
X014711Y005988D03*
X014711Y006185D03*
X013569Y006185D03*
X013569Y005988D03*
X013569Y005792D03*
X013569Y005595D03*
D28*
X015943Y005156D03*
X016140Y005156D03*
X016337Y005156D03*
X016337Y004624D03*
X016140Y004624D03*
X015943Y004624D03*
D29*
X013955Y004140D03*
X013325Y004140D03*
X013325Y003540D03*
X013955Y003540D03*
X016140Y002205D03*
X016140Y001575D03*
X013755Y002090D03*
X013125Y002090D03*
X013325Y005140D03*
X013955Y005140D03*
D30*
X013640Y004983D03*
X013640Y005297D03*
X013640Y004297D03*
X013640Y003983D03*
X013640Y003697D03*
X013640Y003383D03*
X013440Y002247D03*
X013440Y001933D03*
X015983Y001890D03*
X016297Y001890D03*
D31*
X016140Y001890D03*
X013440Y002090D03*
X013640Y003540D03*
X013640Y004140D03*
X013640Y005140D03*
D32*
X014390Y004640D03*
D33*
X000760Y001010D02*
X000760Y000760D01*
X012640Y000760D01*
X012640Y002320D01*
X012613Y002348D01*
X012091Y002348D01*
X012091Y002163D01*
X012020Y002093D01*
X010740Y002093D01*
X010670Y002163D01*
X010670Y002892D01*
X010699Y002921D01*
X010670Y002951D01*
X010670Y003680D01*
X010699Y003709D01*
X010694Y003714D01*
X010678Y003741D01*
X010670Y003772D01*
X010670Y004063D01*
X011340Y004063D01*
X011340Y004143D01*
X010670Y004143D01*
X010670Y004433D01*
X010678Y004464D01*
X010694Y004491D01*
X010699Y004496D01*
X010670Y004525D01*
X010670Y005255D01*
X010699Y005284D01*
X010670Y005313D01*
X010670Y006042D01*
X010699Y006071D01*
X010670Y006100D01*
X010670Y006829D01*
X010699Y006859D01*
X010670Y006888D01*
X010670Y007617D01*
X010740Y007687D01*
X012020Y007687D01*
X012091Y007617D01*
X012091Y006888D01*
X012062Y006859D01*
X012091Y006829D01*
X012091Y006615D01*
X012127Y006615D01*
X012202Y006540D01*
X012290Y006452D01*
X012290Y005552D01*
X012552Y005290D01*
X012640Y005290D01*
X012640Y009020D01*
X000760Y009020D01*
X000760Y004050D01*
X001500Y004050D01*
X001500Y003570D01*
X001580Y003570D01*
X001580Y004048D01*
X001551Y004045D01*
X001551Y004045D01*
X001215Y004154D01*
X001215Y004154D01*
X000952Y004390D01*
X000952Y004390D01*
X000952Y004390D01*
X000809Y004713D01*
X000809Y005067D01*
X000952Y005390D01*
X000952Y005390D01*
X001215Y005626D01*
X001215Y005626D01*
X001551Y005735D01*
X001551Y005735D01*
X001903Y005698D01*
X001903Y005698D01*
X002209Y005522D01*
X002209Y005522D01*
X002209Y005522D01*
X002417Y005236D01*
X002417Y005236D01*
X002490Y004890D01*
X002417Y004544D01*
X002417Y004544D01*
X002209Y004258D01*
X002209Y004258D01*
X002209Y004258D01*
X001903Y004082D01*
X001903Y004082D01*
X001602Y004050D01*
X002356Y004050D01*
X002386Y004042D01*
X002414Y004026D01*
X002436Y004004D01*
X002452Y003976D01*
X002460Y003946D01*
X002460Y003570D01*
X001580Y003570D01*
X001580Y003490D01*
X002460Y003490D01*
X002460Y003114D01*
X002454Y003090D01*
X003189Y003090D01*
X003189Y003275D01*
X003860Y003275D01*
X003860Y003355D01*
X003189Y003355D01*
X003189Y003646D01*
X003197Y003676D01*
X003213Y003704D01*
X003236Y003726D01*
X003263Y003742D01*
X003293Y003750D01*
X003860Y003750D01*
X003860Y003355D01*
X003940Y003355D01*
X004610Y003355D01*
X004610Y003646D01*
X004602Y003676D01*
X004586Y003704D01*
X004564Y003726D01*
X004537Y003742D01*
X004506Y003750D01*
X003940Y003750D01*
X003940Y003355D01*
X003940Y003275D01*
X004610Y003275D01*
X004610Y002984D01*
X004602Y002954D01*
X004586Y002927D01*
X004581Y002921D01*
X004610Y002892D01*
X004610Y002163D01*
X004540Y002093D01*
X003340Y002093D01*
X003340Y001940D01*
X002460Y001940D01*
X002460Y001570D01*
X001580Y001570D01*
X001580Y001490D01*
X002460Y001490D01*
X002460Y001114D01*
X002452Y001084D01*
X002436Y001056D01*
X002414Y001034D01*
X002386Y001018D01*
X002356Y001010D01*
X001580Y001010D01*
X001580Y001490D01*
X001500Y001490D01*
X001500Y001010D01*
X000760Y001010D01*
X000760Y000954D02*
X012640Y000954D01*
X012640Y000876D02*
X000760Y000876D01*
X000760Y000797D02*
X012640Y000797D01*
X012640Y001033D02*
X002411Y001033D01*
X002459Y001111D02*
X012640Y001111D01*
X012640Y001190D02*
X002460Y001190D01*
X002460Y001268D02*
X012640Y001268D01*
X012640Y001347D02*
X002460Y001347D01*
X002460Y001425D02*
X012640Y001425D01*
X012640Y001504D02*
X001580Y001504D01*
X001580Y001425D02*
X001500Y001425D01*
X001500Y001347D02*
X001580Y001347D01*
X001580Y001268D02*
X001500Y001268D01*
X001500Y001190D02*
X001580Y001190D01*
X001580Y001111D02*
X001500Y001111D01*
X001500Y001033D02*
X001580Y001033D01*
X002460Y001582D02*
X012640Y001582D01*
X012640Y001661D02*
X002460Y001661D01*
X002460Y001739D02*
X012640Y001739D01*
X012640Y001818D02*
X002460Y001818D01*
X002460Y001896D02*
X012640Y001896D01*
X012640Y001975D02*
X003340Y001975D01*
X003340Y002053D02*
X012640Y002053D01*
X012640Y002132D02*
X012059Y002132D01*
X012091Y002210D02*
X012640Y002210D01*
X012640Y002289D02*
X012091Y002289D01*
X012091Y002708D02*
X012091Y002892D01*
X012062Y002921D01*
X012091Y002951D01*
X012091Y003165D01*
X012127Y003165D01*
X012202Y003240D01*
X012290Y003328D01*
X012290Y004278D01*
X012352Y004340D01*
X012640Y004340D01*
X012640Y002708D01*
X012091Y002708D01*
X012091Y002760D02*
X012640Y002760D01*
X012640Y002838D02*
X012091Y002838D01*
X012067Y002917D02*
X012640Y002917D01*
X012640Y002995D02*
X012091Y002995D01*
X012091Y003074D02*
X012640Y003074D01*
X012640Y003152D02*
X012091Y003152D01*
X012193Y003231D02*
X012640Y003231D01*
X012640Y003309D02*
X012271Y003309D01*
X012290Y003388D02*
X012640Y003388D01*
X012640Y003466D02*
X012290Y003466D01*
X012290Y003545D02*
X012640Y003545D01*
X012640Y003623D02*
X012290Y003623D01*
X012290Y003702D02*
X012640Y003702D01*
X012640Y003780D02*
X012290Y003780D01*
X012290Y003859D02*
X012640Y003859D01*
X012640Y003937D02*
X012290Y003937D01*
X012290Y004016D02*
X012640Y004016D01*
X012640Y004094D02*
X012290Y004094D01*
X012290Y004173D02*
X012640Y004173D01*
X012640Y004251D02*
X012290Y004251D01*
X012342Y004330D02*
X012640Y004330D01*
X013640Y004297D02*
X013640Y004140D01*
X013640Y004140D01*
X013640Y004297D01*
X013640Y004297D01*
X013640Y004251D02*
X013640Y004251D01*
X013640Y004173D02*
X013640Y004173D01*
X013640Y004140D02*
X013640Y003983D01*
X013640Y004140D01*
X013640Y004140D01*
X013640Y004094D02*
X013640Y004094D01*
X013640Y004016D02*
X013640Y004016D01*
X013640Y003983D02*
X013640Y003983D01*
X013640Y003697D01*
X013640Y003697D01*
X013640Y003540D01*
X013640Y003540D01*
X013640Y003697D01*
X013640Y003768D01*
X013640Y003784D01*
X013640Y003983D01*
X013640Y003983D01*
X013640Y003937D02*
X013640Y003937D01*
X013640Y003859D02*
X013640Y003859D01*
X013640Y003780D02*
X013640Y003780D01*
X013640Y003702D02*
X013640Y003702D01*
X013640Y003697D02*
X013640Y003697D01*
X013640Y003623D02*
X013640Y003623D01*
X013640Y003545D02*
X013640Y003545D01*
X013640Y003540D02*
X013640Y003383D01*
X013640Y003540D01*
X013640Y003540D01*
X013640Y003466D02*
X013640Y003466D01*
X013640Y003388D02*
X013640Y003388D01*
X013640Y003383D02*
X013640Y003383D01*
X013839Y003778D02*
X013839Y003792D01*
X013831Y003823D01*
X013820Y003840D01*
X013831Y003857D01*
X013839Y003888D01*
X013839Y003902D01*
X014123Y003902D01*
X014153Y003932D01*
X014154Y003931D01*
X014326Y003931D01*
X014449Y004054D01*
X014449Y004226D01*
X014391Y004284D01*
X014461Y004284D01*
X014592Y004338D01*
X014692Y004438D01*
X014746Y004569D01*
X014746Y004711D01*
X014725Y004763D01*
X014894Y004931D01*
X014976Y004931D01*
X015035Y004990D01*
X015345Y004990D01*
X015404Y004931D01*
X015576Y004931D01*
X015699Y005054D01*
X015699Y005226D01*
X015576Y005349D01*
X015404Y005349D01*
X015345Y005290D01*
X015035Y005290D01*
X014976Y005349D01*
X014804Y005349D01*
X014681Y005226D01*
X014681Y005144D01*
X014513Y004975D01*
X014461Y004996D01*
X014319Y004996D01*
X014188Y004942D01*
X014088Y004842D01*
X014067Y004790D01*
X014055Y004790D01*
X014055Y004808D01*
X013985Y004878D01*
X013836Y004878D01*
X013839Y004888D01*
X013839Y004902D01*
X014123Y004902D01*
X014193Y004972D01*
X014193Y005308D01*
X014123Y005378D01*
X014105Y005378D01*
X014105Y005737D01*
X013994Y005849D01*
X014040Y005895D01*
X014154Y005781D01*
X014326Y005781D01*
X014383Y005838D01*
X014463Y005838D01*
X014463Y005799D01*
X014354Y005799D01*
X014231Y005676D01*
X014231Y005504D01*
X014354Y005381D01*
X014526Y005381D01*
X014570Y005426D01*
X014889Y005426D01*
X014908Y005445D01*
X015340Y005445D01*
X015404Y005381D01*
X015576Y005381D01*
X015699Y005504D01*
X015699Y005676D01*
X015576Y005799D01*
X015404Y005799D01*
X015350Y005745D01*
X015057Y005745D01*
X015140Y005828D01*
X015140Y006352D01*
X015040Y006452D01*
X014952Y006540D01*
X013949Y006540D01*
X013949Y006614D01*
X014052Y006614D01*
X014055Y006617D01*
X014065Y006614D01*
X014140Y006614D01*
X014215Y006614D01*
X014225Y006617D01*
X014228Y006614D01*
X014642Y006614D01*
X014713Y006685D01*
X014713Y006772D01*
X014804Y006681D01*
X014976Y006681D01*
X015099Y006804D01*
X015099Y006976D01*
X015038Y007037D01*
X015038Y007067D01*
X015095Y007067D01*
X015166Y007138D01*
X015166Y007270D01*
X015204Y007231D01*
X015376Y007231D01*
X015499Y007354D01*
X015499Y007526D01*
X015494Y007531D01*
X015704Y007531D01*
X015931Y007304D01*
X015931Y005492D01*
X015794Y005354D01*
X015794Y005324D01*
X015764Y005294D01*
X015764Y005017D01*
X015834Y004947D01*
X015925Y004947D01*
X015793Y004815D01*
X015793Y004792D01*
X015764Y004763D01*
X015764Y004486D01*
X015834Y004416D01*
X015960Y004416D01*
X015960Y004365D01*
X016014Y004311D01*
X015736Y004311D01*
X015675Y004250D01*
X015576Y004349D01*
X015411Y004349D01*
X015494Y004431D01*
X015576Y004431D01*
X015699Y004554D01*
X015699Y004726D01*
X015576Y004849D01*
X015404Y004849D01*
X015281Y004726D01*
X015281Y004644D01*
X014356Y003719D01*
X014326Y003749D01*
X014154Y003749D01*
X014153Y003748D01*
X014123Y003778D01*
X013839Y003778D01*
X013839Y003780D02*
X014418Y003780D01*
X014496Y003859D02*
X013831Y003859D01*
X014332Y003937D02*
X014575Y003937D01*
X014653Y004016D02*
X014410Y004016D01*
X014449Y004094D02*
X014732Y004094D01*
X014810Y004173D02*
X014449Y004173D01*
X014424Y004251D02*
X014889Y004251D01*
X014967Y004330D02*
X014571Y004330D01*
X014662Y004408D02*
X015046Y004408D01*
X015124Y004487D02*
X014712Y004487D01*
X014745Y004565D02*
X015203Y004565D01*
X015281Y004644D02*
X014746Y004644D01*
X014742Y004722D02*
X015281Y004722D01*
X015356Y004801D02*
X014763Y004801D01*
X014841Y004879D02*
X015857Y004879D01*
X015824Y004958D02*
X015602Y004958D01*
X015681Y005036D02*
X015764Y005036D01*
X015764Y005115D02*
X015699Y005115D01*
X015699Y005193D02*
X015764Y005193D01*
X015764Y005272D02*
X015653Y005272D01*
X015794Y005350D02*
X014151Y005350D01*
X014193Y005272D02*
X014727Y005272D01*
X014681Y005193D02*
X014193Y005193D01*
X014193Y005115D02*
X014652Y005115D01*
X014574Y005036D02*
X014193Y005036D01*
X014178Y004958D02*
X014226Y004958D01*
X014125Y004879D02*
X013836Y004879D01*
X013640Y004983D02*
X013640Y004983D01*
X013640Y005099D01*
X013640Y005140D01*
X013640Y005140D01*
X013640Y005297D01*
X013640Y005140D01*
X013640Y004983D01*
X013640Y005036D02*
X013640Y005036D01*
X013640Y005115D02*
X013640Y005115D01*
X013640Y005140D02*
X013640Y005140D01*
X013640Y005193D02*
X013640Y005193D01*
X013640Y005272D02*
X013640Y005272D01*
X013640Y005297D02*
X013640Y005297D01*
X013441Y005378D02*
X013441Y005392D01*
X013449Y005423D01*
X013451Y005426D01*
X013425Y005426D01*
X013395Y005434D01*
X013367Y005449D01*
X013345Y005472D01*
X013329Y005499D01*
X013321Y005530D01*
X013321Y005595D01*
X013569Y005595D01*
X013569Y005595D01*
X013321Y005595D01*
X013321Y005660D01*
X013328Y005686D01*
X013321Y005693D01*
X013321Y006035D01*
X013207Y006035D01*
X013083Y006035D01*
X012890Y006228D01*
X012890Y005290D01*
X013087Y005290D01*
X013087Y005308D01*
X013157Y005378D01*
X013441Y005378D01*
X013414Y005429D02*
X012890Y005429D01*
X012890Y005507D02*
X013327Y005507D01*
X013321Y005586D02*
X012890Y005586D01*
X012890Y005664D02*
X013322Y005664D01*
X013321Y005743D02*
X012890Y005743D01*
X012890Y005821D02*
X013321Y005821D01*
X013321Y005900D02*
X012890Y005900D01*
X012890Y005978D02*
X013321Y005978D01*
X013061Y006057D02*
X012890Y006057D01*
X012890Y006135D02*
X012983Y006135D01*
X012904Y006214D02*
X012890Y006214D01*
X012640Y006214D02*
X012290Y006214D01*
X012290Y006292D02*
X012640Y006292D01*
X012640Y006371D02*
X012290Y006371D01*
X012290Y006449D02*
X012640Y006449D01*
X012640Y006528D02*
X012215Y006528D01*
X012136Y006606D02*
X012640Y006606D01*
X012640Y006685D02*
X012091Y006685D01*
X012091Y006763D02*
X012640Y006763D01*
X012640Y006842D02*
X012079Y006842D01*
X012091Y006920D02*
X012640Y006920D01*
X012640Y006999D02*
X012091Y006999D01*
X012091Y007077D02*
X012640Y007077D01*
X012640Y007156D02*
X012091Y007156D01*
X012091Y007234D02*
X012640Y007234D01*
X012640Y007313D02*
X012091Y007313D01*
X012091Y007391D02*
X012640Y007391D01*
X012640Y007470D02*
X012091Y007470D01*
X012091Y007548D02*
X012640Y007548D01*
X012640Y007627D02*
X012081Y007627D01*
X012640Y007705D02*
X000760Y007705D01*
X000760Y007627D02*
X010679Y007627D01*
X010670Y007548D02*
X000760Y007548D01*
X000760Y007470D02*
X010670Y007470D01*
X010670Y007391D02*
X000760Y007391D01*
X000760Y007313D02*
X010670Y007313D01*
X010670Y007234D02*
X000760Y007234D01*
X000760Y007156D02*
X010670Y007156D01*
X010670Y007077D02*
X000760Y007077D01*
X000760Y006999D02*
X010670Y006999D01*
X010670Y006920D02*
X000760Y006920D01*
X000760Y006842D02*
X010682Y006842D01*
X010670Y006763D02*
X000760Y006763D01*
X000760Y006685D02*
X010670Y006685D01*
X010670Y006606D02*
X000760Y006606D01*
X000760Y006528D02*
X010670Y006528D01*
X010670Y006449D02*
X000760Y006449D01*
X000760Y006371D02*
X010670Y006371D01*
X010670Y006292D02*
X000760Y006292D01*
X000760Y006214D02*
X010670Y006214D01*
X010670Y006135D02*
X000760Y006135D01*
X000760Y006057D02*
X010684Y006057D01*
X010670Y005978D02*
X000760Y005978D01*
X000760Y005900D02*
X010670Y005900D01*
X010670Y005821D02*
X000760Y005821D01*
X000760Y005743D02*
X010670Y005743D01*
X010670Y005664D02*
X001962Y005664D01*
X002098Y005586D02*
X010670Y005586D01*
X010670Y005507D02*
X002219Y005507D01*
X002276Y005429D02*
X010670Y005429D01*
X010670Y005350D02*
X002333Y005350D01*
X002391Y005272D02*
X010686Y005272D01*
X010670Y005193D02*
X002426Y005193D01*
X002442Y005115D02*
X010670Y005115D01*
X010670Y005036D02*
X002459Y005036D01*
X002476Y004958D02*
X010670Y004958D01*
X010670Y004879D02*
X002488Y004879D01*
X002471Y004801D02*
X010670Y004801D01*
X010670Y004722D02*
X002454Y004722D01*
X002438Y004644D02*
X010670Y004644D01*
X010670Y004565D02*
X002421Y004565D01*
X002375Y004487D02*
X010691Y004487D01*
X010670Y004408D02*
X002318Y004408D01*
X002260Y004330D02*
X010670Y004330D01*
X010670Y004251D02*
X002196Y004251D01*
X002060Y004173D02*
X010670Y004173D01*
X010670Y004016D02*
X002424Y004016D01*
X002460Y003937D02*
X010670Y003937D01*
X010670Y003859D02*
X002460Y003859D01*
X002460Y003780D02*
X010670Y003780D01*
X010691Y003702D02*
X004588Y003702D01*
X004610Y003623D02*
X010670Y003623D01*
X010670Y003545D02*
X004610Y003545D01*
X004610Y003466D02*
X010670Y003466D01*
X010670Y003388D02*
X004610Y003388D01*
X004610Y003231D02*
X010670Y003231D01*
X010670Y003309D02*
X003940Y003309D01*
X003940Y003388D02*
X003860Y003388D01*
X003860Y003466D02*
X003940Y003466D01*
X003940Y003545D02*
X003860Y003545D01*
X003860Y003623D02*
X003940Y003623D01*
X003940Y003702D02*
X003860Y003702D01*
X003212Y003702D02*
X002460Y003702D01*
X002460Y003623D02*
X003189Y003623D01*
X003189Y003545D02*
X001580Y003545D01*
X001580Y003623D02*
X001500Y003623D01*
X001500Y003702D02*
X001580Y003702D01*
X001580Y003780D02*
X001500Y003780D01*
X001500Y003859D02*
X001580Y003859D01*
X001580Y003937D02*
X001500Y003937D01*
X001500Y004016D02*
X001580Y004016D01*
X001399Y004094D02*
X000760Y004094D01*
X000760Y004173D02*
X001194Y004173D01*
X001107Y004251D02*
X000760Y004251D01*
X000760Y004330D02*
X001020Y004330D01*
X000944Y004408D02*
X000760Y004408D01*
X000760Y004487D02*
X000910Y004487D01*
X000875Y004565D02*
X000760Y004565D01*
X000760Y004644D02*
X000840Y004644D01*
X000809Y004722D02*
X000760Y004722D01*
X000760Y004801D02*
X000809Y004801D01*
X000809Y004879D02*
X000760Y004879D01*
X000760Y004958D02*
X000809Y004958D01*
X000809Y005036D02*
X000760Y005036D01*
X000760Y005115D02*
X000830Y005115D01*
X000865Y005193D02*
X000760Y005193D01*
X000760Y005272D02*
X000900Y005272D01*
X000935Y005350D02*
X000760Y005350D01*
X000760Y005429D02*
X000996Y005429D01*
X001083Y005507D02*
X000760Y005507D01*
X000760Y005586D02*
X001170Y005586D01*
X001332Y005664D02*
X000760Y005664D01*
X001924Y004094D02*
X011340Y004094D01*
X010670Y003152D02*
X004610Y003152D01*
X004610Y003074D02*
X010670Y003074D01*
X010670Y002995D02*
X004610Y002995D01*
X004586Y002917D02*
X010694Y002917D01*
X010670Y002838D02*
X004610Y002838D01*
X004610Y002760D02*
X010670Y002760D01*
X010670Y002681D02*
X004610Y002681D01*
X004610Y002603D02*
X010670Y002603D01*
X010670Y002524D02*
X004610Y002524D01*
X004610Y002446D02*
X010670Y002446D01*
X010670Y002367D02*
X004610Y002367D01*
X004610Y002289D02*
X010670Y002289D01*
X010670Y002210D02*
X004610Y002210D01*
X004579Y002132D02*
X010701Y002132D01*
X012890Y001919D02*
X012957Y001852D01*
X013241Y001852D01*
X013241Y001838D01*
X013249Y001807D01*
X013265Y001780D01*
X013288Y001758D01*
X013315Y001742D01*
X013345Y001734D01*
X013440Y001734D01*
X013535Y001734D01*
X013565Y001742D01*
X013592Y001758D01*
X013615Y001780D01*
X013631Y001807D01*
X013639Y001838D01*
X013639Y001852D01*
X013918Y001852D01*
X013910Y001838D01*
X013902Y001807D01*
X013902Y001702D01*
X014131Y001702D01*
X014131Y001684D01*
X014149Y001684D01*
X014149Y001475D01*
X014274Y001475D01*
X014304Y001483D01*
X014332Y001499D01*
X014333Y001500D01*
X014333Y001260D01*
X014375Y001218D01*
X014375Y001072D01*
X014445Y001002D01*
X014741Y001002D01*
X014791Y001051D01*
X014792Y001048D01*
X014815Y001026D01*
X014842Y001010D01*
X014873Y001002D01*
X014978Y001002D01*
X014978Y001231D01*
X014996Y001231D01*
X014996Y001249D01*
X015205Y001249D01*
X015205Y001374D01*
X015197Y001404D01*
X015181Y001432D01*
X015159Y001454D01*
X015132Y001470D01*
X015101Y001478D01*
X014996Y001478D01*
X014996Y001249D01*
X014978Y001249D01*
X014978Y001478D01*
X014873Y001478D01*
X014842Y001470D01*
X014815Y001454D01*
X014792Y001432D01*
X014791Y001429D01*
X014741Y001478D01*
X014673Y001478D01*
X014673Y001536D01*
X014731Y001594D01*
X014731Y001672D01*
X014781Y001672D01*
X014781Y001881D01*
X014799Y001881D01*
X014799Y001672D01*
X014849Y001672D01*
X014849Y001594D01*
X014919Y001524D01*
X015006Y001524D01*
X015007Y001523D01*
X015424Y001523D01*
X015472Y001475D01*
X015808Y001475D01*
X015811Y001478D01*
X015885Y001405D01*
X015904Y001405D01*
X015972Y001337D01*
X016308Y001337D01*
X016323Y001352D01*
X016323Y001327D01*
X016371Y001211D01*
X016461Y001121D01*
X016577Y001073D01*
X016703Y001073D01*
X016819Y001121D01*
X016909Y001211D01*
X016957Y001327D01*
X016957Y001453D01*
X016909Y001569D01*
X016819Y001659D01*
X016703Y001707D01*
X016577Y001707D01*
X016461Y001659D01*
X016378Y001576D01*
X016378Y001691D01*
X016392Y001691D01*
X016423Y001699D01*
X016450Y001715D01*
X016472Y001738D01*
X016488Y001765D01*
X016496Y001795D01*
X016496Y001890D01*
X016496Y001985D01*
X016488Y002015D01*
X016472Y002042D01*
X016450Y002065D01*
X016423Y002081D01*
X016392Y002089D01*
X016378Y002089D01*
X016378Y002373D01*
X016320Y002431D01*
X016320Y002465D01*
X016354Y002431D01*
X016515Y002431D01*
X016545Y002402D01*
X016841Y002402D01*
X016890Y002451D01*
X016939Y002402D01*
X017235Y002402D01*
X017305Y002472D01*
X017305Y002490D01*
X017357Y002490D01*
X017357Y002413D01*
X017427Y002343D01*
X017763Y002343D01*
X017833Y002413D01*
X017833Y002752D01*
X017947Y002638D01*
X017947Y002413D01*
X018017Y002343D01*
X018353Y002343D01*
X018423Y002413D01*
X018423Y002867D01*
X018353Y002937D01*
X018129Y002937D01*
X017925Y003141D01*
X018000Y003141D01*
X018000Y003689D01*
X018080Y003689D01*
X018080Y003141D01*
X018430Y003141D01*
X018460Y003149D01*
X018488Y003165D01*
X018510Y003187D01*
X018520Y003205D01*
X018520Y001937D01*
X018459Y002022D01*
X018459Y002022D01*
X018459Y002022D01*
X018153Y002198D01*
X018153Y002198D01*
X017801Y002235D01*
X017465Y002126D01*
X017202Y001890D01*
X017202Y001890D01*
X017059Y001567D01*
X017059Y001213D01*
X017202Y000890D01*
X017347Y000760D01*
X012890Y000760D01*
X012890Y001919D01*
X012890Y001896D02*
X012913Y001896D01*
X012890Y001818D02*
X013247Y001818D01*
X013326Y001739D02*
X012890Y001739D01*
X012890Y001661D02*
X013902Y001661D01*
X013902Y001684D02*
X013902Y001579D01*
X013910Y001548D01*
X013926Y001521D01*
X013948Y001499D01*
X013976Y001483D01*
X014006Y001475D01*
X014131Y001475D01*
X014131Y001684D01*
X013902Y001684D01*
X013902Y001739D02*
X013554Y001739D01*
X013633Y001818D02*
X013905Y001818D01*
X013902Y001582D02*
X012890Y001582D01*
X012890Y001504D02*
X013943Y001504D01*
X014131Y001504D02*
X014149Y001504D01*
X014149Y001582D02*
X014131Y001582D01*
X014131Y001661D02*
X014149Y001661D01*
X014333Y001425D02*
X012890Y001425D01*
X012890Y001347D02*
X014333Y001347D01*
X014333Y001268D02*
X012890Y001268D01*
X012890Y001190D02*
X014375Y001190D01*
X014375Y001111D02*
X012890Y001111D01*
X012890Y001033D02*
X014414Y001033D01*
X014772Y001033D02*
X014808Y001033D01*
X014978Y001033D02*
X014996Y001033D01*
X014996Y001002D02*
X015101Y001002D01*
X015132Y001010D01*
X015159Y001026D01*
X015181Y001048D01*
X015197Y001076D01*
X015205Y001106D01*
X015205Y001231D01*
X014996Y001231D01*
X014996Y001002D01*
X014996Y001111D02*
X014978Y001111D01*
X014978Y001190D02*
X014996Y001190D01*
X014996Y001268D02*
X014978Y001268D01*
X014978Y001347D02*
X014996Y001347D01*
X014996Y001425D02*
X014978Y001425D01*
X014673Y001504D02*
X015443Y001504D01*
X015185Y001425D02*
X015865Y001425D01*
X015963Y001347D02*
X015205Y001347D01*
X015205Y001268D02*
X016348Y001268D01*
X016323Y001347D02*
X016317Y001347D01*
X016392Y001190D02*
X015205Y001190D01*
X015205Y001111D02*
X016486Y001111D01*
X016794Y001111D02*
X017104Y001111D01*
X017069Y001190D02*
X016888Y001190D01*
X016932Y001268D02*
X017059Y001268D01*
X017059Y001347D02*
X016957Y001347D01*
X016957Y001425D02*
X017059Y001425D01*
X017059Y001504D02*
X016936Y001504D01*
X016896Y001582D02*
X017065Y001582D01*
X017100Y001661D02*
X016815Y001661D01*
X017135Y001739D02*
X016473Y001739D01*
X016465Y001661D02*
X016378Y001661D01*
X016378Y001582D02*
X016384Y001582D01*
X016496Y001818D02*
X017170Y001818D01*
X017209Y001896D02*
X016496Y001896D01*
X016496Y001890D02*
X016297Y001890D01*
X016140Y001890D01*
X016140Y001890D01*
X016140Y001890D01*
X015983Y001890D01*
X015983Y001890D01*
X016140Y001890D01*
X016297Y001890D01*
X016297Y001890D01*
X016297Y001890D01*
X016496Y001890D01*
X016496Y001975D02*
X017297Y001975D01*
X017384Y002053D02*
X016462Y002053D01*
X016378Y002132D02*
X017482Y002132D01*
X017465Y002126D02*
X017465Y002126D01*
X017723Y002210D02*
X016378Y002210D01*
X016378Y002289D02*
X018520Y002289D01*
X018520Y002367D02*
X018377Y002367D01*
X018423Y002446D02*
X018520Y002446D01*
X018520Y002524D02*
X018423Y002524D01*
X018423Y002603D02*
X018520Y002603D01*
X018520Y002681D02*
X018423Y002681D01*
X018423Y002760D02*
X018520Y002760D01*
X018520Y002838D02*
X018423Y002838D01*
X018374Y002917D02*
X018520Y002917D01*
X018520Y002995D02*
X018071Y002995D01*
X017992Y003074D02*
X018520Y003074D01*
X018520Y003152D02*
X018465Y003152D01*
X018080Y003152D02*
X018000Y003152D01*
X018000Y003231D02*
X018080Y003231D01*
X018080Y003309D02*
X018000Y003309D01*
X018000Y003388D02*
X018080Y003388D01*
X018080Y003466D02*
X018000Y003466D01*
X018000Y003545D02*
X018080Y003545D01*
X018080Y003623D02*
X018000Y003623D01*
X017546Y003495D02*
X017546Y003245D01*
X017554Y003215D01*
X017570Y003187D01*
X017592Y003165D01*
X017601Y003160D01*
X017143Y003160D01*
X017085Y003218D01*
X016895Y003218D01*
X016762Y003085D01*
X016762Y002895D01*
X016779Y002878D01*
X016545Y002878D01*
X016515Y002849D01*
X016354Y002849D01*
X016320Y002815D01*
X016320Y003001D01*
X016358Y003039D01*
X016358Y003532D01*
X016288Y003603D01*
X016007Y003603D01*
X016064Y003660D01*
X016064Y003709D01*
X016103Y003748D01*
X016103Y004223D01*
X016127Y004198D01*
X016177Y004198D01*
X016177Y003748D01*
X016248Y003677D01*
X016544Y003677D01*
X016601Y003735D01*
X016601Y003600D01*
X016609Y003569D01*
X016625Y003542D01*
X016647Y003519D01*
X016675Y003504D01*
X016705Y003495D01*
X017094Y003495D01*
X017094Y003866D01*
X017174Y003866D01*
X017174Y003495D01*
X017546Y003495D01*
X017546Y003466D02*
X016358Y003466D01*
X016358Y003388D02*
X017546Y003388D01*
X017546Y003309D02*
X016358Y003309D01*
X016358Y003231D02*
X017550Y003231D01*
X017174Y003545D02*
X017094Y003545D01*
X017094Y003623D02*
X017174Y003623D01*
X017174Y003702D02*
X017094Y003702D01*
X017094Y003780D02*
X017174Y003780D01*
X017174Y003859D02*
X017094Y003859D01*
X016601Y003702D02*
X016568Y003702D01*
X016601Y003623D02*
X016028Y003623D01*
X016064Y003702D02*
X016224Y003702D01*
X016177Y003780D02*
X016103Y003780D01*
X016103Y003859D02*
X016177Y003859D01*
X016177Y003937D02*
X016103Y003937D01*
X016103Y004016D02*
X016177Y004016D01*
X016177Y004094D02*
X016103Y004094D01*
X016103Y004173D02*
X016177Y004173D01*
X015996Y004330D02*
X015595Y004330D01*
X015674Y004251D02*
X015676Y004251D01*
X015666Y004021D02*
X015666Y003837D01*
X015635Y003868D01*
X015445Y003868D01*
X015312Y003735D01*
X015312Y003545D01*
X015445Y003412D01*
X015635Y003412D01*
X015683Y003460D01*
X015865Y003460D01*
X015922Y003517D01*
X015922Y003039D01*
X015960Y003001D01*
X015960Y002431D01*
X015902Y002373D01*
X015902Y002089D01*
X015888Y002089D01*
X015857Y002081D01*
X015852Y002078D01*
X015649Y002078D01*
X015649Y002096D01*
X015631Y002096D01*
X015631Y002305D01*
X015506Y002305D01*
X015476Y002297D01*
X015448Y002281D01*
X015426Y002259D01*
X015410Y002232D01*
X015402Y002201D01*
X015402Y002169D01*
X015314Y002257D01*
X015280Y002257D01*
X015318Y002295D01*
X015318Y002485D01*
X015185Y002618D01*
X014995Y002618D01*
X014862Y002485D01*
X014862Y002295D01*
X014910Y002247D01*
X014849Y002186D01*
X014849Y002108D01*
X014799Y002108D01*
X014799Y001899D01*
X014849Y001899D01*
X014849Y001890D01*
X014849Y001881D01*
X014799Y001881D01*
X014799Y001899D01*
X014781Y001899D01*
X014781Y002108D01*
X014731Y002108D01*
X014731Y002186D01*
X014849Y002304D01*
X014849Y002476D01*
X014726Y002599D01*
X014554Y002599D01*
X014431Y002476D01*
X014431Y002394D01*
X014353Y002315D01*
X014353Y002260D01*
X014308Y002305D01*
X013972Y002305D01*
X013959Y002292D01*
X013923Y002328D01*
X013905Y002328D01*
X013905Y002340D01*
X013893Y002352D01*
X013985Y002352D01*
X014055Y002422D01*
X014055Y002440D01*
X014095Y002440D01*
X014154Y002381D01*
X014326Y002381D01*
X014449Y002504D01*
X014449Y002676D01*
X014326Y002799D01*
X014154Y002799D01*
X014095Y002740D01*
X014055Y002740D01*
X014055Y002758D01*
X013998Y002815D01*
X014055Y002872D01*
X014055Y002890D01*
X014095Y002890D01*
X014154Y002831D01*
X014326Y002831D01*
X014385Y002890D01*
X014452Y002890D01*
X015494Y003931D01*
X015576Y003931D01*
X015666Y004021D01*
X015666Y004016D02*
X015660Y004016D01*
X015666Y003937D02*
X015582Y003937D01*
X015644Y003859D02*
X015666Y003859D01*
X015436Y003859D02*
X015421Y003859D01*
X015357Y003780D02*
X015342Y003780D01*
X015312Y003702D02*
X015264Y003702D01*
X015312Y003623D02*
X015185Y003623D01*
X015107Y003545D02*
X015313Y003545D01*
X015391Y003466D02*
X015028Y003466D01*
X014950Y003388D02*
X015922Y003388D01*
X015922Y003466D02*
X015871Y003466D01*
X015922Y003309D02*
X014871Y003309D01*
X014793Y003231D02*
X015922Y003231D01*
X015922Y003152D02*
X014714Y003152D01*
X014636Y003074D02*
X015922Y003074D01*
X015960Y002995D02*
X014557Y002995D01*
X014479Y002917D02*
X015960Y002917D01*
X015960Y002838D02*
X014333Y002838D01*
X014365Y002760D02*
X015960Y002760D01*
X015960Y002681D02*
X014444Y002681D01*
X014449Y002603D02*
X014980Y002603D01*
X014901Y002524D02*
X014801Y002524D01*
X014849Y002446D02*
X014862Y002446D01*
X014862Y002367D02*
X014849Y002367D01*
X014833Y002289D02*
X014869Y002289D01*
X014873Y002210D02*
X014755Y002210D01*
X014731Y002186D02*
X014731Y002186D01*
X014731Y002132D02*
X014849Y002132D01*
X014799Y002053D02*
X014781Y002053D01*
X014781Y001975D02*
X014799Y001975D01*
X014799Y001896D02*
X014849Y001896D01*
X014849Y001890D02*
X015077Y001890D01*
X014849Y001890D01*
X014799Y001818D02*
X014781Y001818D01*
X014781Y001739D02*
X014799Y001739D01*
X014849Y001661D02*
X014731Y001661D01*
X014719Y001582D02*
X014861Y001582D01*
X015077Y001890D02*
X015077Y001890D01*
X015360Y002210D02*
X015404Y002210D01*
X015461Y002289D02*
X015311Y002289D01*
X015318Y002367D02*
X015902Y002367D01*
X015902Y002289D02*
X015819Y002289D01*
X015832Y002281D02*
X015804Y002297D01*
X015774Y002305D01*
X015649Y002305D01*
X015649Y002096D01*
X015878Y002096D01*
X015878Y002201D01*
X015870Y002232D01*
X015854Y002259D01*
X015832Y002281D01*
X015876Y002210D02*
X015902Y002210D01*
X015902Y002132D02*
X015878Y002132D01*
X015649Y002132D02*
X015631Y002132D01*
X015631Y002210D02*
X015649Y002210D01*
X015649Y002289D02*
X015631Y002289D01*
X015318Y002446D02*
X015960Y002446D01*
X015960Y002524D02*
X015279Y002524D01*
X015200Y002603D02*
X015960Y002603D01*
X016320Y002446D02*
X016340Y002446D01*
X016378Y002367D02*
X017403Y002367D01*
X017357Y002446D02*
X017279Y002446D01*
X016895Y002446D02*
X016885Y002446D01*
X016762Y002917D02*
X016320Y002917D01*
X016320Y002995D02*
X016762Y002995D01*
X016762Y003074D02*
X016358Y003074D01*
X016358Y003152D02*
X016829Y003152D01*
X016343Y002838D02*
X016320Y002838D01*
X016346Y003545D02*
X016623Y003545D01*
X015960Y004408D02*
X015470Y004408D01*
X015631Y004487D02*
X015764Y004487D01*
X015764Y004565D02*
X015699Y004565D01*
X015699Y004644D02*
X015764Y004644D01*
X015764Y004722D02*
X015699Y004722D01*
X015624Y004801D02*
X015793Y004801D01*
X016140Y004960D02*
X016140Y005156D01*
X016140Y004960D01*
X016140Y004960D01*
X016140Y005036D02*
X016140Y005036D01*
X016140Y005115D02*
X016140Y005115D01*
X016140Y005156D02*
X016140Y005156D01*
X016399Y005442D02*
X016483Y005358D01*
X016483Y005399D01*
X016934Y005399D01*
X016934Y005405D01*
X016483Y005405D01*
X016483Y005504D01*
X016491Y005535D01*
X016507Y005562D01*
X016529Y005584D01*
X016557Y005600D01*
X016587Y005608D01*
X016601Y005608D01*
X016601Y005834D01*
X017094Y005834D01*
X017094Y005914D01*
X016601Y005914D01*
X016601Y006180D01*
X016609Y006211D01*
X016625Y006238D01*
X016647Y006261D01*
X016675Y006276D01*
X016705Y006285D01*
X017094Y006285D01*
X017094Y005914D01*
X017174Y005914D01*
X017174Y006285D01*
X017546Y006285D01*
X017546Y006535D01*
X017554Y006565D01*
X017570Y006593D01*
X017592Y006615D01*
X017620Y006631D01*
X017650Y006639D01*
X018000Y006639D01*
X018000Y006091D01*
X018080Y006091D01*
X018080Y006639D01*
X018430Y006639D01*
X018460Y006631D01*
X018488Y006615D01*
X018510Y006593D01*
X018520Y006575D01*
X018520Y007843D01*
X018459Y007758D01*
X018459Y007758D01*
X018459Y007758D01*
X018153Y007582D01*
X018153Y007582D01*
X018000Y007566D01*
X018129Y007437D01*
X018353Y007437D01*
X018423Y007367D01*
X018423Y006913D01*
X018353Y006843D01*
X018017Y006843D01*
X017947Y006913D01*
X017947Y007138D01*
X017833Y007252D01*
X017833Y006913D01*
X017763Y006843D01*
X017427Y006843D01*
X017357Y006913D01*
X017357Y006990D01*
X017305Y006990D01*
X017305Y006972D01*
X017235Y006902D01*
X016939Y006902D01*
X016890Y006951D01*
X016841Y006902D01*
X016545Y006902D01*
X016475Y006972D01*
X016475Y007308D01*
X016543Y007376D01*
X016543Y008525D01*
X016228Y008840D01*
X016055Y008840D01*
X016055Y008749D01*
X015846Y008749D01*
X015846Y008731D01*
X016055Y008731D01*
X016055Y008606D01*
X016047Y008576D01*
X016031Y008548D01*
X016009Y008526D01*
X015990Y008515D01*
X016009Y008504D01*
X016031Y008482D01*
X016047Y008454D01*
X016055Y008424D01*
X016055Y008299D01*
X015846Y008299D01*
X015846Y008281D01*
X016055Y008281D01*
X016055Y008156D01*
X016047Y008126D01*
X016031Y008098D01*
X016009Y008076D01*
X015982Y008060D01*
X015951Y008052D01*
X015846Y008052D01*
X015846Y008281D01*
X015828Y008281D01*
X015828Y008052D01*
X015723Y008052D01*
X015692Y008060D01*
X015665Y008076D01*
X015642Y008098D01*
X015641Y008101D01*
X015591Y008052D01*
X015295Y008052D01*
X015227Y008120D01*
X015170Y008120D01*
X015166Y008124D01*
X015166Y007986D01*
X015184Y007986D01*
X015222Y007949D01*
X015876Y007949D01*
X016261Y007564D01*
X016349Y007476D01*
X016349Y005492D01*
X016399Y005442D01*
X016399Y005442D01*
X016412Y005429D02*
X016483Y005429D01*
X016484Y005507D02*
X016349Y005507D01*
X016349Y005586D02*
X016531Y005586D01*
X016601Y005664D02*
X016349Y005664D01*
X016349Y005743D02*
X016601Y005743D01*
X016601Y005821D02*
X016349Y005821D01*
X016349Y005900D02*
X017094Y005900D01*
X017094Y005978D02*
X017174Y005978D01*
X017174Y006057D02*
X017094Y006057D01*
X017094Y006135D02*
X017174Y006135D01*
X017174Y006214D02*
X017094Y006214D01*
X016611Y006214D02*
X016349Y006214D01*
X016349Y006292D02*
X017546Y006292D01*
X017546Y006371D02*
X016349Y006371D01*
X016349Y006449D02*
X017546Y006449D01*
X017546Y006528D02*
X016349Y006528D01*
X016349Y006606D02*
X017583Y006606D01*
X018000Y006606D02*
X018080Y006606D01*
X018080Y006528D02*
X018000Y006528D01*
X018000Y006449D02*
X018080Y006449D01*
X018080Y006371D02*
X018000Y006371D01*
X018000Y006292D02*
X018080Y006292D01*
X018080Y006214D02*
X018000Y006214D01*
X018000Y006135D02*
X018080Y006135D01*
X018497Y006606D02*
X018520Y006606D01*
X018520Y006685D02*
X016349Y006685D01*
X016349Y006763D02*
X018520Y006763D01*
X018520Y006842D02*
X016349Y006842D01*
X016349Y006920D02*
X016527Y006920D01*
X016475Y006999D02*
X016349Y006999D01*
X016349Y007077D02*
X016475Y007077D01*
X016475Y007156D02*
X016349Y007156D01*
X016349Y007234D02*
X016475Y007234D01*
X016479Y007313D02*
X016349Y007313D01*
X016349Y007391D02*
X016543Y007391D01*
X016543Y007470D02*
X016349Y007470D01*
X016277Y007548D02*
X016543Y007548D01*
X016543Y007627D02*
X016198Y007627D01*
X016120Y007705D02*
X016543Y007705D01*
X016543Y007784D02*
X016041Y007784D01*
X015963Y007862D02*
X016543Y007862D01*
X016543Y007941D02*
X015884Y007941D01*
X015846Y008098D02*
X015828Y008098D01*
X015828Y008176D02*
X015846Y008176D01*
X015846Y008255D02*
X015828Y008255D01*
X015828Y008299D02*
X015828Y008731D01*
X015846Y008731D01*
X015846Y008502D01*
X015846Y008299D01*
X015828Y008299D01*
X015828Y008333D02*
X015846Y008333D01*
X015846Y008412D02*
X015828Y008412D01*
X015828Y008490D02*
X015846Y008490D01*
X015846Y008569D02*
X015828Y008569D01*
X015828Y008647D02*
X015846Y008647D01*
X015846Y008726D02*
X015828Y008726D01*
X016055Y008726D02*
X016342Y008726D01*
X016264Y008804D02*
X016055Y008804D01*
X016055Y008647D02*
X016421Y008647D01*
X016499Y008569D02*
X016043Y008569D01*
X016023Y008490D02*
X016543Y008490D01*
X016543Y008412D02*
X016055Y008412D01*
X016055Y008333D02*
X016543Y008333D01*
X016543Y008255D02*
X016055Y008255D01*
X016055Y008176D02*
X016543Y008176D01*
X016543Y008098D02*
X016031Y008098D01*
X015643Y008098D02*
X015637Y008098D01*
X015249Y008098D02*
X015166Y008098D01*
X015166Y008019D02*
X016543Y008019D01*
X015765Y007470D02*
X015499Y007470D01*
X015499Y007391D02*
X015844Y007391D01*
X015922Y007313D02*
X015458Y007313D01*
X015379Y007234D02*
X015931Y007234D01*
X015931Y007156D02*
X015166Y007156D01*
X015166Y007234D02*
X015201Y007234D01*
X015105Y007077D02*
X015931Y007077D01*
X015931Y006999D02*
X015076Y006999D01*
X015099Y006920D02*
X015931Y006920D01*
X015931Y006842D02*
X015099Y006842D01*
X015058Y006763D02*
X015931Y006763D01*
X015931Y006685D02*
X014979Y006685D01*
X014800Y006685D02*
X014712Y006685D01*
X014713Y006763D02*
X014722Y006763D01*
X014965Y006528D02*
X015931Y006528D01*
X015931Y006606D02*
X013949Y006606D01*
X014140Y006614D02*
X014140Y006892D01*
X014140Y006892D01*
X014140Y007169D01*
X014100Y007169D01*
X014100Y007600D01*
X014180Y007600D01*
X014180Y007169D01*
X014140Y007169D01*
X014140Y006892D01*
X014140Y006614D01*
X014140Y006685D02*
X014140Y006685D01*
X014140Y006763D02*
X014140Y006763D01*
X014140Y006842D02*
X014140Y006842D01*
X014140Y006892D02*
X014140Y006892D01*
X014140Y006920D02*
X014140Y006920D01*
X014140Y006999D02*
X014140Y006999D01*
X014140Y007077D02*
X014140Y007077D01*
X014140Y007156D02*
X014140Y007156D01*
X014100Y007234D02*
X014180Y007234D01*
X014180Y007313D02*
X014100Y007313D01*
X014100Y007391D02*
X014180Y007391D01*
X014180Y007470D02*
X014100Y007470D01*
X014100Y007548D02*
X014180Y007548D01*
X014180Y007680D02*
X014100Y007680D01*
X014100Y008111D01*
X014140Y008111D01*
X014180Y008111D01*
X014180Y007680D01*
X014180Y007705D02*
X014100Y007705D01*
X014100Y007784D02*
X014180Y007784D01*
X014180Y007862D02*
X014100Y007862D01*
X014100Y007941D02*
X014180Y007941D01*
X014180Y008019D02*
X014100Y008019D01*
X014100Y008098D02*
X014180Y008098D01*
X014140Y008111D02*
X014140Y008388D01*
X014140Y008388D01*
X014140Y008111D01*
X014140Y008176D02*
X014140Y008176D01*
X014140Y008255D02*
X014140Y008255D01*
X014140Y008333D02*
X014140Y008333D01*
X013803Y008666D02*
X013638Y008666D01*
X013567Y008595D01*
X013567Y008213D01*
X013185Y008213D01*
X013114Y008142D01*
X013114Y007987D01*
X013025Y007987D01*
X012890Y007852D01*
X012890Y009020D01*
X014158Y009020D01*
X013803Y008666D01*
X013863Y008726D02*
X012890Y008726D01*
X012890Y008804D02*
X013942Y008804D01*
X014020Y008883D02*
X012890Y008883D01*
X012890Y008961D02*
X014099Y008961D01*
X013619Y008647D02*
X012890Y008647D01*
X012890Y008569D02*
X013567Y008569D01*
X013567Y008490D02*
X012890Y008490D01*
X012890Y008412D02*
X013567Y008412D01*
X013567Y008333D02*
X012890Y008333D01*
X012890Y008255D02*
X013567Y008255D01*
X013148Y008176D02*
X012890Y008176D01*
X012890Y008098D02*
X013114Y008098D01*
X013114Y008019D02*
X012890Y008019D01*
X012890Y007941D02*
X012978Y007941D01*
X012900Y007862D02*
X012890Y007862D01*
X012640Y007862D02*
X000760Y007862D01*
X000760Y007784D02*
X012640Y007784D01*
X012640Y007941D02*
X000760Y007941D01*
X000760Y008019D02*
X012640Y008019D01*
X012640Y008098D02*
X001762Y008098D01*
X001819Y008121D02*
X001909Y008211D01*
X001957Y008327D01*
X001957Y008453D01*
X001909Y008569D01*
X012640Y008569D01*
X012640Y008647D02*
X001831Y008647D01*
X001819Y008659D02*
X001703Y008707D01*
X001577Y008707D01*
X001461Y008659D01*
X001371Y008569D01*
X000760Y008569D01*
X000760Y008647D02*
X001449Y008647D01*
X001371Y008569D02*
X001323Y008453D01*
X001323Y008327D01*
X001371Y008211D01*
X001461Y008121D01*
X001577Y008073D01*
X001703Y008073D01*
X001819Y008121D01*
X001874Y008176D02*
X012640Y008176D01*
X012640Y008255D02*
X001927Y008255D01*
X001957Y008333D02*
X012640Y008333D01*
X012640Y008412D02*
X001957Y008412D01*
X001942Y008490D02*
X012640Y008490D01*
X012640Y008726D02*
X000760Y008726D01*
X000760Y008804D02*
X012640Y008804D01*
X012640Y008883D02*
X000760Y008883D01*
X000760Y008961D02*
X012640Y008961D01*
X016859Y006920D02*
X016921Y006920D01*
X017253Y006920D02*
X017357Y006920D01*
X017833Y006920D02*
X017947Y006920D01*
X017947Y006999D02*
X017833Y006999D01*
X017833Y007077D02*
X017947Y007077D01*
X017929Y007156D02*
X017833Y007156D01*
X017833Y007234D02*
X017851Y007234D01*
X018096Y007470D02*
X018520Y007470D01*
X018520Y007548D02*
X018018Y007548D01*
X018230Y007627D02*
X018520Y007627D01*
X018520Y007705D02*
X018366Y007705D01*
X018477Y007784D02*
X018520Y007784D01*
X018520Y007391D02*
X018399Y007391D01*
X018423Y007313D02*
X018520Y007313D01*
X018520Y007234D02*
X018423Y007234D01*
X018423Y007156D02*
X018520Y007156D01*
X018520Y007077D02*
X018423Y007077D01*
X018423Y006999D02*
X018520Y006999D01*
X018520Y006920D02*
X018423Y006920D01*
X016601Y006135D02*
X016349Y006135D01*
X016349Y006057D02*
X016601Y006057D01*
X016601Y005978D02*
X016349Y005978D01*
X015931Y005978D02*
X015140Y005978D01*
X015140Y005900D02*
X015931Y005900D01*
X015931Y005821D02*
X015133Y005821D01*
X015140Y006057D02*
X015931Y006057D01*
X015931Y006135D02*
X015140Y006135D01*
X015140Y006214D02*
X015931Y006214D01*
X015931Y006292D02*
X015140Y006292D01*
X015122Y006371D02*
X015931Y006371D01*
X015931Y006449D02*
X015043Y006449D01*
X014463Y005821D02*
X014366Y005821D01*
X014298Y005743D02*
X014100Y005743D01*
X014105Y005664D02*
X014231Y005664D01*
X014231Y005586D02*
X014105Y005586D01*
X014105Y005507D02*
X014231Y005507D01*
X014307Y005429D02*
X014105Y005429D01*
X014114Y005821D02*
X014021Y005821D01*
X014892Y005429D02*
X015357Y005429D01*
X015623Y005429D02*
X015868Y005429D01*
X015931Y005507D02*
X015699Y005507D01*
X015699Y005586D02*
X015931Y005586D01*
X015931Y005664D02*
X015699Y005664D01*
X015632Y005743D02*
X015931Y005743D01*
X015378Y004958D02*
X015002Y004958D01*
X014071Y004801D02*
X014055Y004801D01*
X013129Y005350D02*
X012890Y005350D01*
X012640Y005350D02*
X012492Y005350D01*
X012414Y005429D02*
X012640Y005429D01*
X012640Y005507D02*
X012335Y005507D01*
X012290Y005586D02*
X012640Y005586D01*
X012640Y005664D02*
X012290Y005664D01*
X012290Y005743D02*
X012640Y005743D01*
X012640Y005821D02*
X012290Y005821D01*
X012290Y005900D02*
X012640Y005900D01*
X012640Y005978D02*
X012290Y005978D01*
X012290Y006057D02*
X012640Y006057D01*
X012640Y006135D02*
X012290Y006135D01*
X014021Y002838D02*
X014147Y002838D01*
X014115Y002760D02*
X014054Y002760D01*
X014449Y002524D02*
X014479Y002524D01*
X014431Y002446D02*
X014390Y002446D01*
X014405Y002367D02*
X014000Y002367D01*
X014325Y002289D02*
X014353Y002289D01*
X013440Y002247D02*
X013440Y002090D01*
X013440Y002090D01*
X013440Y002049D01*
X013440Y001933D01*
X013440Y002090D01*
X013440Y002090D01*
X013440Y002247D01*
X013440Y002247D01*
X013440Y002210D02*
X013440Y002210D01*
X013440Y002132D02*
X013440Y002132D01*
X013440Y002053D02*
X013440Y002053D01*
X013440Y001975D02*
X013440Y001975D01*
X013440Y001933D02*
X013440Y001933D01*
X013440Y001734D01*
X013440Y001933D01*
X013440Y001933D01*
X013440Y001896D02*
X013440Y001896D01*
X013440Y001818D02*
X013440Y001818D01*
X013440Y001739D02*
X013440Y001739D01*
X012890Y000954D02*
X017174Y000954D01*
X017202Y000890D02*
X017202Y000890D01*
X017202Y000890D01*
X017219Y000876D02*
X012890Y000876D01*
X012890Y000797D02*
X017306Y000797D01*
X017139Y001033D02*
X015166Y001033D01*
X017801Y002235D02*
X017801Y002235D01*
X018042Y002210D02*
X018520Y002210D01*
X018520Y002132D02*
X018269Y002132D01*
X018404Y002053D02*
X018520Y002053D01*
X018520Y001975D02*
X018493Y001975D01*
X017993Y002367D02*
X017787Y002367D01*
X017833Y002446D02*
X017947Y002446D01*
X017947Y002524D02*
X017833Y002524D01*
X017833Y002603D02*
X017947Y002603D01*
X017904Y002681D02*
X017833Y002681D01*
X003860Y003309D02*
X002460Y003309D01*
X002460Y003231D02*
X003189Y003231D01*
X003189Y003152D02*
X002460Y003152D01*
X002460Y003388D02*
X003189Y003388D01*
X003189Y003466D02*
X002460Y003466D01*
X001518Y008098D02*
X000760Y008098D01*
X000760Y008176D02*
X001406Y008176D01*
X001353Y008255D02*
X000760Y008255D01*
X000760Y008333D02*
X001323Y008333D01*
X001323Y008412D02*
X000760Y008412D01*
X000760Y008490D02*
X001338Y008490D01*
X001819Y008659D02*
X001909Y008569D01*
D34*
X001890Y008890D03*
X002740Y008790D03*
X003640Y008790D03*
X004640Y008790D03*
X005640Y008790D03*
X006640Y008790D03*
X007640Y008790D03*
X008640Y008790D03*
X009640Y008790D03*
X010640Y008790D03*
X011640Y008790D03*
X012540Y008790D03*
X013140Y008890D03*
X014840Y008390D03*
X015090Y008740D03*
X016390Y008390D03*
X016990Y007490D03*
X015640Y006890D03*
X013390Y006890D03*
X012540Y006890D03*
X012540Y005890D03*
X012540Y004140D03*
X012540Y003140D03*
X012540Y001890D03*
X012540Y000990D03*
X013140Y000890D03*
X011640Y000990D03*
X010640Y000990D03*
X009640Y000990D03*
X008640Y000990D03*
X007640Y000990D03*
X006640Y000990D03*
X005640Y000990D03*
X004640Y000990D03*
X003640Y000990D03*
X002740Y000990D03*
X001890Y000890D03*
X000890Y000890D03*
X002740Y001640D03*
X003090Y001840D03*
X003640Y001990D03*
X004140Y001990D03*
X004690Y002140D03*
X004690Y002640D03*
X004690Y003140D03*
X004690Y003640D03*
X004140Y003840D03*
X003640Y003840D03*
X002740Y003890D03*
X003090Y003190D03*
X000890Y004140D03*
X002740Y004890D03*
X002740Y005890D03*
X002740Y006890D03*
X002740Y007890D03*
X000890Y007890D03*
X000890Y006890D03*
X000890Y005890D03*
X000890Y008890D03*
X012540Y007890D03*
X015540Y003640D03*
X016640Y003140D03*
X016990Y002990D03*
X015090Y002390D03*
X016890Y000890D03*
D35*
X012890Y000840D02*
X012640Y000840D01*
D36*
X013755Y002090D02*
X013755Y002278D01*
X013443Y002590D01*
X013443Y003040D01*
X013837Y003040D02*
X014240Y003040D01*
X014390Y003040D01*
X015490Y004140D01*
X015490Y004640D02*
X014390Y003540D01*
X014240Y003540D01*
X013955Y003540D01*
X013325Y003540D02*
X013090Y003540D01*
X012940Y003690D01*
X012940Y004340D01*
X012790Y004490D01*
X012290Y004490D01*
X012140Y004340D01*
X012140Y003390D01*
X012065Y003315D01*
X011380Y003315D01*
X013090Y004240D02*
X013190Y004140D01*
X013325Y004140D01*
X013090Y004240D02*
X013090Y004440D01*
X012690Y004840D01*
X011430Y004840D01*
X011380Y004890D01*
X011703Y005677D02*
X012390Y004990D01*
X012790Y004990D01*
X013140Y004640D01*
X013443Y004640D01*
X013837Y004640D02*
X014390Y004640D01*
X014890Y005140D01*
X015490Y005140D01*
X015890Y004940D02*
X016090Y004940D01*
X016140Y004990D01*
X016140Y005156D01*
X016460Y004810D02*
X016540Y004890D01*
X016938Y004890D01*
X016938Y004634D02*
X016347Y004634D01*
X016337Y004624D01*
X016460Y004810D02*
X016000Y004810D01*
X015943Y004753D01*
X015943Y004624D01*
X014240Y004140D02*
X013955Y004140D01*
X013955Y005140D02*
X013955Y005675D01*
X013838Y005792D01*
X013569Y005792D01*
X013569Y005988D02*
X013571Y005990D01*
X013840Y005990D01*
X013569Y006185D02*
X013145Y006185D01*
X012940Y006390D01*
X012940Y007690D01*
X013087Y007837D01*
X013392Y007837D01*
X013392Y007443D02*
X013193Y007443D01*
X013090Y007340D01*
X013090Y006490D01*
X013190Y006390D01*
X014890Y006390D01*
X014990Y006290D01*
X014990Y005890D01*
X014892Y005792D01*
X014711Y005792D01*
X014711Y005988D02*
X014242Y005988D01*
X014240Y005990D01*
X014445Y006185D02*
X014440Y006190D01*
X014445Y006185D02*
X014711Y006185D01*
X013746Y006596D02*
X013740Y006590D01*
X013746Y006596D02*
X013746Y006892D01*
X014888Y006892D02*
X014890Y006890D01*
X014888Y006892D02*
X014888Y007246D01*
X014888Y007443D02*
X015287Y007443D01*
X015290Y007440D01*
X016693Y007140D02*
X016693Y008587D01*
X016290Y008990D01*
X014340Y008990D01*
X013943Y008593D01*
X013943Y008388D01*
X017087Y007140D02*
X017595Y007140D01*
X015490Y005590D02*
X015485Y005595D01*
X014711Y005595D01*
X014445Y005595D01*
X014440Y005590D01*
X013640Y005524D02*
X013640Y005297D01*
X013640Y005524D02*
X013569Y005595D01*
X013325Y005140D02*
X012490Y005140D01*
X012140Y005490D01*
X012140Y006390D01*
X012065Y006465D01*
X011380Y006465D01*
X011380Y005677D02*
X011703Y005677D01*
X013837Y002590D02*
X014240Y002590D01*
X014503Y002253D02*
X014640Y002390D01*
X014503Y002253D02*
X014503Y002087D01*
X016440Y002640D02*
X016693Y002640D01*
X017087Y002640D02*
X017595Y002640D01*
D37*
X017835Y002990D02*
X018185Y002640D01*
X017835Y002990D02*
X016990Y002990D01*
X015340Y001990D02*
X015243Y002087D01*
X015077Y002087D01*
X015090Y002099D01*
X015090Y002390D01*
X014503Y002087D02*
X014140Y002087D01*
X013758Y002087D01*
X013755Y002090D01*
X014503Y001693D02*
X014503Y001331D01*
X014593Y001240D01*
X015077Y001693D02*
X015340Y001693D01*
X015340Y001990D01*
X015340Y001693D02*
X015640Y001693D01*
X015837Y001693D01*
X015955Y001575D01*
X016140Y001575D01*
X013390Y006890D02*
X013392Y006892D01*
X013392Y007246D01*
X014840Y008082D02*
X014888Y008034D01*
X014840Y008082D02*
X014840Y008390D01*
X014536Y008390D01*
X014534Y008388D01*
X014337Y008388D02*
X014337Y008637D01*
X014440Y008740D01*
X015090Y008740D01*
X015443Y008740D01*
X015140Y008390D02*
X014840Y008390D01*
X015140Y008390D02*
X015240Y008290D01*
X015443Y008290D01*
X016990Y007490D02*
X017835Y007490D01*
X018185Y007140D01*
D38*
X015290Y007440D03*
X014890Y006890D03*
X013740Y006590D03*
X014445Y006185D03*
X014240Y005990D03*
X013840Y005990D03*
X014440Y005590D03*
X014890Y005140D03*
X015490Y005140D03*
X015490Y005590D03*
X015490Y004640D03*
X015490Y004140D03*
X014240Y004140D03*
X014240Y003540D03*
X014240Y003040D03*
X014240Y002590D03*
X014640Y002390D03*
X016440Y002640D03*
D39*
X003900Y002528D02*
X001502Y002528D01*
X001540Y002530D01*
D40*
X011380Y002528D02*
X012687Y002528D01*
X013125Y002090D01*
X016140Y002205D02*
X016140Y003286D01*
X015790Y003640D02*
X015540Y003640D01*
X015790Y003640D02*
X015884Y003734D01*
X015884Y003994D01*
X016396Y003994D02*
X016396Y004372D01*
X016390Y004378D01*
X016202Y004378D01*
X016140Y004440D01*
X016140Y004624D01*
X016390Y004378D02*
X016938Y004378D01*
D41*
X016337Y005156D02*
X016337Y005292D01*
X016199Y005430D01*
X016199Y007414D01*
X015814Y007799D01*
X015160Y007799D01*
X015122Y007837D01*
X014888Y007837D01*
X014888Y007640D02*
X015119Y007640D01*
X015160Y007681D01*
X015766Y007681D01*
X016081Y007366D01*
X016081Y005430D01*
X015943Y005292D01*
X015943Y005156D01*
M02*
